<svg id="svg" version="1.1" xmlns="http://www.w3.org/2000/svg" xmlns:xlink="http://www.w3.org/1999/xlink" width="400" height="400" viewBox="0, 0, 400,400"><g id="svgg"><path id="path0" d="M210.950 73.938 C 210.757 73.988,210.600 74.113,210.600 74.215 C 210.600 74.317,210.420 74.400,210.200 74.400 C 209.980 74.400,209.800 74.476,209.800 74.569 C 209.800 74.661,209.465 74.909,209.055 75.119 C 208.646 75.328,208.134 75.658,207.918 75.850 C 207.702 76.043,207.450 76.200,207.359 76.200 C 207.116 76.200,203.982 79.449,203.400 80.305 C 203.125 80.709,202.743 81.211,202.550 81.420 C 202.358 81.629,202.200 81.894,202.200 82.008 C 202.200 82.123,202.023 82.407,201.807 82.639 C 201.591 82.871,201.461 83.137,201.519 83.230 C 201.576 83.324,201.528 83.400,201.412 83.400 C 201.295 83.400,201.200 83.580,201.200 83.800 C 201.200 84.020,201.110 84.200,201.000 84.200 C 200.890 84.200,200.800 84.335,200.800 84.500 C 200.800 84.665,200.730 84.800,200.644 84.800 C 200.558 84.800,200.313 85.250,200.100 85.800 C 199.887 86.350,199.642 86.800,199.556 86.800 C 199.470 86.800,199.400 86.980,199.400 87.200 C 199.400 87.420,199.318 87.600,199.219 87.600 C 199.119 87.600,198.976 88.050,198.900 88.600 C 198.824 89.150,198.681 89.600,198.581 89.600 C 198.482 89.600,198.400 89.775,198.400 89.988 C 198.400 90.202,198.310 90.432,198.200 90.500 C 198.090 90.568,198.000 90.843,198.000 91.112 C 198.000 91.380,197.927 91.600,197.838 91.600 C 197.687 91.600,197.326 93.126,197.070 94.850 C 197.008 95.263,196.886 95.600,196.797 95.600 C 196.708 95.600,196.572 96.365,196.494 97.300 C 196.416 98.235,196.273 99.000,196.176 99.000 C 196.079 99.000,196.000 99.630,196.000 100.400 C 196.000 101.200,195.914 101.800,195.800 101.800 C 195.671 101.800,195.600 103.833,195.600 107.500 C 195.600 110.812,195.677 113.200,195.783 113.200 C 195.884 113.200,196.014 113.763,196.072 114.450 C 196.250 116.543,196.662 119.000,196.836 119.000 C 196.926 119.000,197.000 119.270,197.000 119.600 C 197.000 119.930,197.082 120.200,197.181 120.200 C 197.281 120.200,197.424 120.650,197.500 121.200 C 197.576 121.750,197.719 122.200,197.819 122.200 C 197.918 122.200,198.000 122.380,198.000 122.600 C 198.000 122.820,198.070 123.000,198.156 123.000 C 198.242 123.000,198.487 123.450,198.700 124.000 C 198.913 124.550,199.158 125.000,199.244 125.000 C 199.330 125.000,199.400 125.135,199.400 125.300 C 199.400 125.465,199.490 125.600,199.600 125.600 C 199.710 125.600,199.800 125.718,199.800 125.862 C 199.800 126.007,199.975 126.312,200.188 126.541 C 200.401 126.770,200.521 127.012,200.455 127.079 C 200.388 127.145,200.438 127.200,200.567 127.200 C 200.695 127.200,200.800 127.293,200.800 127.407 C 200.800 127.520,201.048 127.873,201.350 128.191 C 201.653 128.509,202.170 129.095,202.500 129.493 C 203.128 130.250,204.981 132.117,205.746 132.764 C 205.992 132.971,206.134 133.199,206.063 133.270 C 205.992 133.342,206.072 133.400,206.242 133.400 C 206.411 133.400,206.893 133.714,207.312 134.098 C 207.731 134.482,208.238 134.849,208.437 134.912 C 208.637 134.975,208.800 135.111,208.800 135.213 C 208.800 135.316,208.935 135.400,209.100 135.400 C 209.265 135.400,209.401 135.468,209.402 135.550 C 209.403 135.633,209.808 135.878,210.302 136.095 C 210.796 136.312,211.200 136.559,211.200 136.645 C 211.200 136.730,211.380 136.800,211.600 136.800 C 211.820 136.800,212.000 136.882,212.000 136.982 C 212.000 137.083,212.360 137.226,212.799 137.300 C 213.238 137.374,213.649 137.517,213.711 137.617 C 213.773 137.718,214.088 137.800,214.412 137.800 C 214.735 137.800,215.000 137.890,215.000 138.000 C 215.000 138.117,215.667 138.200,216.600 138.200 C 218.067 138.200,218.200 138.167,218.200 137.800 C 218.200 137.580,218.124 137.400,218.031 137.400 C 217.604 137.400,216.400 135.890,216.400 135.355 C 216.400 135.213,216.228 134.989,216.018 134.858 C 215.808 134.726,215.576 134.345,215.502 134.010 C 215.428 133.674,215.308 133.399,215.234 133.398 C 215.106 133.396,214.744 132.666,214.167 131.250 C 214.021 130.893,213.834 130.600,213.751 130.600 C 213.668 130.600,213.600 130.420,213.600 130.200 C 213.600 129.980,213.511 129.800,213.402 129.800 C 213.294 129.800,213.147 129.440,213.077 129.000 C 213.006 128.560,212.890 128.200,212.818 128.200 C 212.746 128.200,212.568 127.795,212.422 127.300 C 212.275 126.805,212.084 126.400,211.997 126.400 C 211.909 126.400,211.776 125.950,211.700 125.400 C 211.624 124.850,211.481 124.400,211.381 124.400 C 211.282 124.400,211.200 124.130,211.200 123.800 C 211.200 123.470,211.116 123.200,211.014 123.200 C 210.912 123.200,210.767 122.704,210.691 122.097 C 210.615 121.491,210.474 120.946,210.377 120.886 C 210.279 120.826,210.200 120.517,210.200 120.200 C 210.200 119.883,210.110 119.568,210.000 119.500 C 209.890 119.432,209.800 119.130,209.800 118.828 C 209.800 118.527,209.713 118.193,209.606 118.086 C 209.499 117.979,209.351 117.241,209.277 116.446 C 209.203 115.651,209.065 115.000,208.971 115.000 C 208.877 115.000,208.800 114.555,208.800 114.012 C 208.800 113.468,208.710 112.968,208.600 112.900 C 208.482 112.827,208.409 111.772,208.421 110.338 C 208.439 108.364,208.484 108.005,208.660 108.450 C 208.779 108.753,208.944 109.000,209.026 109.000 C 209.108 109.000,209.236 109.405,209.310 109.900 C 209.385 110.395,209.525 110.800,209.623 110.800 C 209.720 110.800,209.800 110.936,209.800 111.103 C 209.800 111.269,209.890 111.584,210.000 111.803 C 210.110 112.021,210.288 112.376,210.396 112.591 C 210.504 112.806,210.651 113.346,210.722 113.791 C 210.793 114.236,210.930 114.600,211.026 114.600 C 211.122 114.600,211.200 114.775,211.200 114.988 C 211.200 115.202,211.278 115.425,211.374 115.484 C 211.516 115.571,211.761 116.326,211.878 117.033 C 211.890 117.107,211.968 117.234,212.050 117.317 C 212.132 117.399,212.200 117.677,212.200 117.933 C 212.200 118.190,212.290 118.400,212.400 118.400 C 212.510 118.400,212.600 118.625,212.600 118.900 C 212.600 119.175,212.682 119.400,212.781 119.400 C 212.881 119.400,213.024 119.850,213.100 120.400 C 213.176 120.950,213.319 121.450,213.419 121.512 C 213.518 121.573,213.600 121.843,213.600 122.112 C 213.600 122.380,213.690 122.600,213.800 122.600 C 213.910 122.600,214.000 122.775,214.000 122.988 C 214.000 123.202,214.085 123.429,214.188 123.493 C 214.292 123.557,214.437 124.012,214.511 124.505 C 214.585 124.997,214.725 125.400,214.823 125.400 C 214.920 125.400,215.000 125.625,215.000 125.900 C 215.000 126.175,215.090 126.400,215.200 126.400 C 215.310 126.400,215.400 126.575,215.400 126.788 C 215.400 127.002,215.485 127.229,215.588 127.293 C 215.692 127.357,215.837 127.812,215.911 128.305 C 215.985 128.797,216.103 129.200,216.174 129.200 C 216.290 129.200,216.455 129.536,216.909 130.700 C 216.995 130.920,217.085 131.145,217.110 131.200 C 217.134 131.255,217.220 131.503,217.300 131.750 C 217.381 131.998,217.526 132.200,217.623 132.200 C 217.720 132.200,217.800 132.380,217.800 132.600 C 217.800 132.820,217.890 133.000,218.000 133.000 C 218.110 133.000,218.200 133.099,218.200 133.220 C 218.200 133.618,218.872 134.894,219.270 135.250 C 219.485 135.442,219.580 135.601,219.481 135.603 C 219.083 135.610,219.931 135.994,220.350 135.997 C 221.091 136.002,220.355 133.753,218.185 129.387 C 217.506 128.019,216.684 126.315,216.360 125.600 C 216.035 124.885,215.561 123.850,215.306 123.300 C 213.859 120.182,212.288 115.727,211.321 112.000 C 210.463 108.695,208.950 101.229,209.077 100.923 C 209.127 100.800,209.176 100.859,209.184 101.053 C 209.193 101.247,209.287 101.562,209.394 101.753 C 209.500 101.944,209.906 103.225,210.296 104.600 C 212.682 113.023,214.384 117.941,216.476 122.465 C 216.874 123.325,217.200 124.063,217.200 124.104 C 217.200 124.145,218.011 125.871,219.003 127.939 C 219.994 130.008,220.962 132.036,221.153 132.448 C 221.651 133.521,222.600 133.136,222.600 131.860 C 222.600 131.717,222.690 131.600,222.800 131.600 C 222.910 131.600,223.000 131.375,223.000 131.100 C 223.000 130.825,223.080 130.600,223.177 130.600 C 223.274 130.600,223.416 130.105,223.491 129.500 C 223.567 128.895,223.712 128.400,223.814 128.400 C 223.916 128.400,224.000 128.175,224.000 127.900 C 224.000 127.625,224.090 127.400,224.200 127.400 C 224.310 127.400,224.400 127.130,224.400 126.800 C 224.400 126.470,224.480 126.200,224.577 126.200 C 224.674 126.200,224.816 125.706,224.891 125.103 C 224.966 124.500,225.112 123.955,225.214 123.891 C 225.316 123.828,225.400 123.512,225.400 123.188 C 225.400 122.865,225.478 122.600,225.574 122.600 C 225.670 122.600,225.798 122.218,225.860 121.750 C 225.921 121.283,226.033 120.675,226.108 120.400 C 226.183 120.125,226.290 119.607,226.344 119.248 C 226.399 118.890,226.524 118.547,226.622 118.486 C 226.720 118.426,226.800 118.162,226.800 117.900 C 226.800 117.638,226.879 117.375,226.976 117.315 C 227.073 117.255,227.216 116.619,227.292 115.903 C 227.369 115.186,227.515 114.600,227.616 114.600 C 227.717 114.600,227.800 114.245,227.800 113.812 C 227.800 113.378,227.890 112.968,228.000 112.900 C 228.110 112.832,228.200 112.152,228.200 111.388 C 228.200 110.596,228.286 110.000,228.400 110.000 C 228.527 110.000,228.600 108.529,228.600 105.988 C 228.600 103.365,228.531 102.019,228.400 102.100 C 228.275 102.177,228.200 101.782,228.200 101.052 C 228.200 100.407,228.119 99.794,228.020 99.690 C 227.922 99.586,227.791 99.140,227.730 98.700 C 227.499 97.039,227.118 95.400,226.962 95.400 C 226.873 95.400,226.800 95.219,226.800 94.997 C 226.800 94.776,226.717 94.438,226.615 94.247 C 226.400 93.845,226.141 93.189,226.083 92.900 C 225.961 92.299,225.732 91.800,225.577 91.800 C 225.480 91.800,225.400 91.627,225.400 91.417 C 225.400 91.206,225.332 91.003,225.250 90.967 C 225.168 90.930,224.943 90.585,224.751 90.200 C 224.362 89.418,223.959 88.751,223.785 88.600 C 223.722 88.545,223.500 88.208,223.292 87.850 C 223.084 87.493,222.838 87.200,222.745 87.200 C 222.652 87.200,222.629 87.116,222.692 87.012 C 222.756 86.909,222.684 86.752,222.531 86.662 C 222.379 86.573,222.105 86.208,221.922 85.850 C 221.739 85.493,221.502 85.200,221.395 85.200 C 221.288 85.200,221.200 85.030,221.200 84.821 C 221.200 84.613,221.065 84.391,220.900 84.328 C 220.735 84.264,220.600 84.075,220.600 83.906 C 220.600 83.738,220.510 83.600,220.400 83.600 C 220.290 83.600,220.200 83.506,220.200 83.390 C 220.200 83.275,219.975 82.972,219.700 82.718 C 219.425 82.463,219.200 82.157,219.200 82.038 C 219.200 81.920,219.041 81.705,218.847 81.561 C 218.652 81.418,218.323 81.035,218.116 80.710 C 217.908 80.386,217.527 79.909,217.269 79.651 C 217.011 79.393,216.800 79.115,216.800 79.033 C 216.800 78.951,216.440 78.486,216.000 78.000 C 215.560 77.514,215.151 76.960,215.090 76.768 C 215.029 76.577,214.804 76.365,214.590 76.297 C 214.375 76.229,214.200 76.103,214.200 76.018 C 214.200 75.932,213.968 75.601,213.685 75.281 C 213.402 74.961,213.031 74.498,212.862 74.250 C 212.561 73.810,211.871 73.697,210.950 73.938 M249.918 103.370 C 249.861 103.464,248.843 103.603,247.657 103.679 C 246.471 103.755,245.470 103.903,245.433 104.009 C 245.397 104.114,245.103 104.200,244.781 104.200 C 244.458 104.200,244.038 104.279,243.847 104.376 C 243.271 104.668,241.524 105.202,241.150 105.201 C 240.957 105.200,240.800 105.290,240.800 105.400 C 240.800 105.510,240.575 105.600,240.300 105.600 C 240.025 105.600,239.800 105.686,239.800 105.791 C 239.800 105.896,239.485 106.041,239.100 106.113 C 238.715 106.185,238.400 106.325,238.400 106.422 C 238.400 106.520,238.220 106.600,238.000 106.600 C 237.780 106.600,237.600 106.676,237.600 106.769 C 237.600 106.861,237.263 107.109,236.850 107.319 C 236.438 107.528,236.055 107.746,236.000 107.801 C 235.640 108.165,234.388 109.000,234.202 109.000 C 234.078 109.000,234.032 109.090,234.100 109.200 C 234.168 109.310,234.142 109.400,234.042 109.400 C 233.941 109.400,233.329 109.941,232.680 110.603 C 230.925 112.391,230.600 112.765,230.600 112.993 C 230.600 113.107,230.516 113.200,230.413 113.200 C 230.311 113.200,230.163 113.403,230.085 113.650 C 230.007 113.897,229.776 114.246,229.571 114.423 C 229.367 114.601,229.200 114.894,229.200 115.073 C 229.200 115.253,229.118 115.400,229.019 115.400 C 228.919 115.400,228.776 115.850,228.700 116.400 C 228.624 116.950,228.481 117.400,228.381 117.400 C 228.282 117.400,228.200 117.625,228.200 117.900 C 228.200 118.175,228.110 118.400,228.000 118.400 C 227.890 118.400,227.800 118.620,227.800 118.888 C 227.800 119.157,227.702 119.437,227.583 119.511 C 227.463 119.585,227.410 119.815,227.464 120.022 C 227.518 120.230,227.481 120.450,227.381 120.512 C 227.282 120.573,227.200 120.843,227.200 121.112 C 227.200 121.380,227.110 121.600,227.000 121.600 C 226.890 121.600,226.800 121.915,226.800 122.300 C 226.800 122.685,226.725 123.000,226.633 123.000 C 226.471 123.000,226.085 124.536,225.866 126.050 C 225.807 126.463,225.677 126.800,225.579 126.800 C 225.481 126.800,225.400 127.142,225.400 127.560 C 225.400 127.978,225.292 128.428,225.159 128.561 C 224.863 128.857,224.686 139.587,224.968 140.141 C 225.069 140.339,225.258 140.860,225.389 141.300 C 225.519 141.740,225.705 142.280,225.802 142.500 C 225.898 142.720,226.759 144.813,227.715 147.150 C 229.694 151.988,229.885 152.183,230.071 149.559 C 230.143 148.547,230.291 147.629,230.401 147.519 C 230.510 147.410,230.600 146.978,230.600 146.560 C 230.600 146.142,230.690 145.800,230.800 145.800 C 230.910 145.800,231.000 145.500,231.000 145.133 C 231.000 144.767,231.063 144.404,231.139 144.328 C 231.278 144.188,231.338 143.983,231.539 142.950 C 231.597 142.648,231.725 142.400,231.823 142.400 C 231.920 142.400,232.000 142.175,232.000 141.900 C 232.000 141.625,232.082 141.400,232.182 141.400 C 232.283 141.400,232.426 141.040,232.500 140.601 C 232.574 140.162,232.717 139.751,232.817 139.689 C 232.918 139.627,233.000 139.402,233.000 139.188 C 233.000 138.975,233.073 138.800,233.163 138.800 C 233.252 138.800,233.451 138.481,233.604 138.090 C 233.757 137.700,233.998 137.285,234.139 137.168 C 234.280 137.051,234.343 136.869,234.278 136.765 C 234.214 136.660,234.296 136.423,234.462 136.237 C 234.627 136.052,235.199 135.069,235.733 134.054 C 237.516 130.658,243.055 123.934,244.868 122.964 C 245.344 122.709,245.580 122.315,242.566 126.813 C 241.502 128.401,240.579 129.925,240.514 130.200 C 240.400 130.693,240.401 130.694,240.630 130.250 C 240.757 130.003,240.960 129.799,241.081 129.797 C 241.201 129.796,241.496 129.742,241.736 129.677 C 242.187 129.557,242.208 130.157,241.773 130.718 C 241.680 130.839,241.663 130.996,241.735 131.068 C 241.807 131.141,241.762 131.200,241.633 131.200 C 241.505 131.200,241.400 131.373,241.400 131.583 C 241.400 131.794,241.332 131.997,241.250 132.033 C 241.168 132.070,240.833 132.618,240.508 133.250 C 240.182 133.883,239.859 134.400,239.789 134.400 C 239.720 134.400,239.493 134.715,239.286 135.100 C 239.079 135.485,238.840 135.800,238.755 135.800 C 238.670 135.800,238.600 135.935,238.600 136.100 C 238.600 136.265,238.510 136.400,238.400 136.400 C 238.290 136.400,238.200 136.535,238.200 136.700 C 238.200 136.865,238.105 137.000,237.988 137.000 C 237.872 137.000,237.832 137.090,237.900 137.200 C 237.968 137.310,237.928 137.400,237.812 137.400 C 237.695 137.400,237.600 137.580,237.600 137.800 C 237.600 138.020,237.510 138.200,237.400 138.200 C 237.290 138.200,237.200 138.335,237.200 138.500 C 237.200 138.665,237.068 138.800,236.906 138.800 C 236.728 138.800,236.658 138.917,236.727 139.099 C 236.790 139.263,236.652 139.761,236.421 140.205 C 236.189 140.649,236.000 141.262,236.000 141.566 C 236.000 141.871,235.921 142.206,235.825 142.310 C 235.498 142.665,235.200 146.116,235.200 149.553 C 235.200 152.543,235.320 154.812,235.708 159.200 C 236.514 168.299,236.504 176.564,235.680 181.756 C 235.511 182.825,235.342 184.122,235.305 184.638 C 235.269 185.154,235.200 185.649,235.154 185.738 C 235.107 185.827,235.046 186.305,235.017 186.800 C 234.987 187.295,234.874 187.809,234.765 187.941 C 234.655 188.074,234.627 188.282,234.702 188.403 C 234.880 188.692,234.637 189.647,234.419 189.512 C 234.326 189.454,234.295 189.811,234.351 190.304 C 234.410 190.828,234.370 191.200,234.255 191.200 C 234.146 191.200,233.997 191.851,233.923 192.646 C 233.849 193.441,233.701 194.179,233.594 194.286 C 233.487 194.393,233.400 194.727,233.400 195.028 C 233.400 195.330,233.310 195.632,233.200 195.700 C 233.090 195.768,233.000 196.043,233.000 196.312 C 233.000 196.580,232.910 196.800,232.800 196.800 C 232.690 196.800,232.600 196.958,232.601 197.150 C 232.602 197.549,231.966 199.449,231.780 199.600 C 231.713 199.655,231.596 200.038,231.520 200.450 C 231.444 200.863,231.296 201.200,231.191 201.200 C 231.086 201.200,231.000 201.380,231.000 201.600 C 231.000 201.820,230.932 202.000,230.849 202.000 C 230.695 202.000,230.342 202.734,230.104 203.550 C 230.032 203.798,229.889 204.000,229.787 204.000 C 229.684 204.000,229.600 204.180,229.600 204.400 C 229.600 204.620,229.532 204.801,229.450 204.802 C 229.368 204.804,229.128 205.164,228.918 205.602 C 228.708 206.041,228.460 206.400,228.368 206.400 C 228.276 206.400,228.200 206.535,228.200 206.700 C 228.200 206.865,228.130 207.000,228.045 207.000 C 227.960 207.000,227.713 207.335,227.495 207.745 C 227.058 208.569,226.919 208.757,225.927 209.858 C 225.551 210.275,225.077 210.854,224.872 211.145 C 224.440 211.760,220.224 215.971,219.011 217.000 C 218.557 217.385,217.986 217.880,217.742 218.100 C 217.497 218.320,216.938 218.767,216.499 219.094 C 216.059 219.421,215.526 219.848,215.312 220.044 C 215.099 220.240,214.858 220.400,214.777 220.400 C 214.695 220.400,214.510 220.513,214.364 220.650 C 213.931 221.060,212.636 222.000,212.505 222.000 C 212.437 222.000,212.140 222.225,211.843 222.500 C 211.547 222.775,211.237 223.000,211.154 223.000 C 211.015 223.000,210.832 223.137,209.753 224.050 C 209.525 224.243,209.264 224.400,209.172 224.400 C 209.016 224.400,208.839 224.531,207.753 225.450 C 207.525 225.643,207.251 225.800,207.143 225.800 C 207.035 225.800,206.801 225.967,206.623 226.171 C 206.446 226.376,206.097 226.607,205.850 226.685 C 205.603 226.763,205.400 226.911,205.400 227.013 C 205.400 227.116,205.265 227.200,205.100 227.200 C 204.935 227.200,204.800 227.290,204.800 227.400 C 204.800 227.510,204.665 227.600,204.500 227.600 C 204.335 227.600,204.200 227.683,204.200 227.784 C 204.200 227.885,204.145 228.110,204.079 228.284 C 203.992 228.510,204.077 228.600,204.379 228.600 C 204.610 228.600,204.800 228.521,204.800 228.424 C 204.800 228.283,212.086 227.936,215.650 227.906 C 216.063 227.903,216.400 227.832,216.400 227.750 C 216.400 227.668,222.700 227.600,230.400 227.600 C 238.100 227.600,244.400 227.668,244.400 227.750 C 244.400 227.832,244.692 227.900,245.050 227.900 C 247.541 227.900,254.427 228.282,254.515 228.425 C 254.575 228.521,255.428 228.600,256.412 228.600 C 257.395 228.600,258.200 228.681,258.200 228.781 C 258.200 228.880,259.078 229.015,260.150 229.081 C 261.223 229.146,262.460 229.237,262.900 229.282 C 263.340 229.327,264.536 229.431,265.557 229.512 C 266.578 229.594,267.461 229.737,267.519 229.830 C 267.576 229.924,268.198 230.000,268.900 230.000 C 269.602 230.000,270.225 230.079,270.285 230.176 C 270.345 230.272,271.520 230.417,272.897 230.496 C 274.275 230.575,275.451 230.721,275.512 230.820 C 275.574 230.919,276.198 231.000,276.900 231.000 C 277.602 231.000,278.232 231.090,278.300 231.200 C 278.368 231.310,278.958 231.400,279.612 231.400 C 280.265 231.400,280.800 231.478,280.800 231.574 C 280.800 231.670,281.813 231.814,283.050 231.893 C 284.288 231.973,285.390 232.107,285.500 232.192 C 286.045 232.612,289.000 232.622,289.000 232.205 C 289.000 231.932,288.868 231.800,288.597 231.800 C 288.376 231.800,288.038 231.721,287.847 231.623 C 287.306 231.348,286.548 231.040,286.000 230.872 C 285.725 230.788,285.455 230.705,285.400 230.688 C 285.345 230.670,285.007 230.587,284.650 230.503 C 284.293 230.419,284.000 230.271,284.000 230.175 C 284.000 230.079,283.775 230.000,283.500 230.000 C 283.225 230.000,283.000 229.929,283.000 229.843 C 283.000 229.757,282.483 229.574,281.850 229.438 C 281.218 229.302,280.453 229.137,280.150 229.072 C 279.848 229.008,279.600 228.875,279.600 228.777 C 279.600 228.680,279.335 228.600,279.012 228.600 C 278.688 228.600,278.373 228.518,278.312 228.419 C 278.250 228.319,277.750 228.176,277.200 228.100 C 276.650 228.024,276.150 227.881,276.088 227.781 C 276.027 227.682,275.712 227.600,275.388 227.600 C 275.065 227.600,274.800 227.510,274.800 227.400 C 274.800 227.290,274.485 227.200,274.100 227.200 C 273.715 227.200,273.400 227.117,273.400 227.016 C 273.400 226.915,272.815 226.769,272.100 226.693 C 271.385 226.616,270.800 226.474,270.800 226.377 C 270.800 226.280,270.440 226.200,270.000 226.200 C 269.560 226.200,269.200 226.120,269.200 226.023 C 269.200 225.926,268.616 225.784,267.902 225.708 C 267.188 225.631,266.553 225.486,266.490 225.384 C 266.428 225.283,266.027 225.200,265.600 225.200 C 265.173 225.200,264.768 225.110,264.700 225.000 C 264.632 224.890,264.227 224.800,263.800 224.800 C 263.373 224.800,262.974 224.719,262.913 224.621 C 262.852 224.522,262.081 224.378,261.200 224.300 C 260.319 224.222,259.548 224.078,259.487 223.979 C 259.426 223.881,258.977 223.800,258.488 223.800 C 258.000 223.800,257.600 223.710,257.600 223.600 C 257.600 223.490,257.155 223.400,256.612 223.400 C 256.068 223.400,255.573 223.319,255.512 223.219 C 255.450 223.120,254.454 222.974,253.297 222.895 C 252.140 222.816,251.145 222.673,251.085 222.576 C 251.025 222.479,250.447 222.400,249.800 222.400 C 249.153 222.400,248.568 222.310,248.500 222.200 C 248.432 222.090,247.802 222.000,247.100 222.000 C 246.398 222.000,245.772 221.916,245.708 221.813 C 245.644 221.710,245.436 221.630,245.246 221.637 C 243.996 221.677,238.967 221.308,238.881 221.169 C 238.823 221.076,237.702 221.000,236.388 221.000 C 234.929 221.000,234.000 220.922,234.000 220.800 C 234.000 220.672,232.054 220.600,228.562 220.600 L 223.124 220.600 223.762 219.976 C 224.113 219.633,224.400 219.248,224.400 219.121 C 224.400 218.993,224.558 218.747,224.750 218.573 C 225.217 218.152,225.721 217.522,225.983 217.031 C 226.101 216.811,226.329 216.500,226.490 216.339 C 226.650 216.178,227.025 215.609,227.323 215.073 C 227.621 214.538,228.036 213.978,228.246 213.829 C 228.455 213.680,228.579 213.433,228.520 213.279 C 228.461 213.126,228.500 213.000,228.606 213.000 C 228.713 213.000,228.800 212.885,228.800 212.744 C 228.800 212.603,228.980 212.359,229.200 212.200 C 229.420 212.041,229.600 211.795,229.600 211.652 C 229.600 211.345,230.584 209.730,230.830 209.633 C 230.923 209.597,231.000 209.463,231.000 209.336 C 231.000 209.034,232.056 206.920,232.250 206.833 C 232.332 206.797,232.400 206.663,232.400 206.536 C 232.400 206.270,233.429 204.150,233.632 203.998 C 233.707 203.942,233.830 203.627,233.905 203.298 C 234.098 202.451,234.471 201.600,234.649 201.600 C 234.732 201.600,234.800 201.375,234.800 201.100 C 234.800 200.825,234.878 200.600,234.974 200.600 C 235.070 200.600,235.207 200.236,235.278 199.791 C 235.349 199.346,235.496 198.806,235.604 198.591 C 235.712 198.376,235.879 198.039,235.975 197.842 C 236.072 197.645,236.215 197.015,236.294 196.442 C 236.373 195.869,236.519 195.400,236.619 195.400 C 236.718 195.400,236.800 195.085,236.800 194.700 C 236.800 194.315,236.890 194.000,237.000 194.000 C 237.110 194.000,237.200 193.595,237.200 193.100 C 237.200 192.605,237.282 192.200,237.382 192.200 C 237.482 192.200,237.628 191.434,237.706 190.497 C 237.784 189.560,237.927 188.745,238.024 188.685 C 238.121 188.625,238.200 187.997,238.200 187.288 C 238.200 186.563,238.287 186.000,238.400 186.000 C 238.521 186.000,238.600 185.167,238.600 183.900 C 238.600 182.633,238.679 181.800,238.800 181.800 C 238.928 181.800,239.000 179.833,239.000 176.300 C 239.000 172.767,238.928 170.800,238.800 170.800 C 238.676 170.800,238.600 169.733,238.600 168.000 C 238.600 166.267,238.524 165.200,238.400 165.200 C 238.281 165.200,238.200 164.433,238.200 163.300 C 238.200 162.167,238.119 161.400,238.000 161.400 C 237.563 161.400,237.834 161.038,238.350 160.932 C 240.030 160.585,241.000 160.303,241.000 160.161 C 241.000 160.072,241.175 160.000,241.388 160.000 C 241.602 160.000,241.826 159.920,241.886 159.823 C 241.946 159.725,242.312 159.586,242.698 159.514 C 243.084 159.441,243.400 159.296,243.400 159.191 C 243.400 159.086,243.580 159.000,243.800 159.000 C 244.020 159.000,244.200 158.910,244.200 158.800 C 244.200 158.690,244.335 158.600,244.500 158.600 C 244.665 158.600,244.800 158.517,244.800 158.416 C 244.800 158.315,245.070 158.172,245.400 158.100 C 245.730 158.028,246.000 157.885,246.000 157.784 C 246.000 157.683,246.135 157.600,246.300 157.600 C 246.465 157.600,246.600 157.510,246.600 157.400 C 246.600 157.290,246.735 157.200,246.900 157.200 C 247.065 157.200,247.200 157.120,247.200 157.022 C 247.200 156.924,247.425 156.787,247.700 156.718 C 247.975 156.649,248.200 156.504,248.200 156.396 C 248.200 156.288,248.294 156.200,248.409 156.200 C 248.524 156.200,248.860 155.975,249.157 155.700 C 249.453 155.425,249.768 155.200,249.857 155.200 C 249.946 155.200,250.232 154.998,250.494 154.750 C 250.756 154.503,251.350 153.985,251.815 153.600 C 253.533 152.176,256.423 149.053,256.565 148.467 C 256.600 148.320,256.699 148.200,256.783 148.200 C 256.868 148.200,257.107 147.885,257.314 147.500 C 257.521 147.115,257.742 146.800,257.804 146.800 C 257.867 146.800,258.085 146.395,258.289 145.900 C 258.493 145.405,258.737 145.000,258.830 145.000 C 258.924 145.000,259.000 144.865,259.000 144.700 C 259.000 144.535,259.090 144.400,259.200 144.400 C 259.310 144.400,259.400 144.265,259.400 144.100 C 259.400 143.935,259.495 143.800,259.612 143.800 C 259.728 143.800,259.768 143.710,259.700 143.600 C 259.632 143.490,259.672 143.400,259.788 143.400 C 259.905 143.400,260.000 143.220,260.000 143.000 C 260.000 142.780,260.090 142.600,260.200 142.600 C 260.310 142.600,260.400 142.465,260.400 142.300 C 260.400 142.135,260.490 142.000,260.600 142.000 C 260.710 142.000,260.800 141.861,260.800 141.690 C 260.800 141.520,261.113 140.892,261.495 140.294 C 261.878 139.696,262.248 138.980,262.317 138.703 C 262.387 138.427,262.524 138.200,262.622 138.200 C 262.720 138.200,262.800 138.020,262.800 137.800 C 262.800 137.580,262.890 137.400,263.000 137.400 C 263.110 137.400,263.200 137.265,263.200 137.100 C 263.200 136.935,263.280 136.800,263.378 136.800 C 263.476 136.800,263.613 136.575,263.682 136.300 C 263.751 136.025,263.896 135.800,264.004 135.800 C 264.112 135.800,264.200 135.620,264.200 135.400 C 264.200 135.180,264.269 135.000,264.353 135.000 C 264.513 135.000,265.200 133.540,265.200 133.199 C 265.200 133.089,265.290 133.000,265.400 133.000 C 265.510 133.000,265.600 132.873,265.600 132.717 C 265.600 132.561,265.691 132.403,265.802 132.366 C 265.913 132.329,266.047 132.074,266.100 131.800 C 266.153 131.526,266.287 131.271,266.398 131.234 C 266.509 131.197,266.600 131.039,266.600 130.883 C 266.600 130.727,266.690 130.600,266.800 130.600 C 266.910 130.600,267.000 130.420,267.000 130.200 C 267.000 129.980,267.080 129.800,267.178 129.800 C 267.276 129.800,267.413 129.575,267.482 129.300 C 267.551 129.025,267.696 128.800,267.804 128.800 C 267.912 128.800,268.000 128.665,268.000 128.500 C 268.000 128.335,268.090 128.200,268.200 128.200 C 268.310 128.200,268.400 128.031,268.400 127.824 C 268.400 127.618,268.535 127.337,268.700 127.200 C 268.865 127.063,269.000 126.827,269.000 126.676 C 269.000 126.524,269.090 126.400,269.200 126.400 C 269.310 126.400,269.400 126.306,269.400 126.192 C 269.400 126.077,269.491 125.874,269.603 125.742 C 270.022 125.242,270.800 123.975,270.800 123.791 C 270.800 123.686,270.890 123.600,271.000 123.600 C 271.110 123.600,271.200 123.479,271.200 123.331 C 271.200 123.182,271.358 122.875,271.550 122.647 C 272.467 121.563,272.587 121.400,272.467 121.400 C 272.397 121.400,272.533 121.232,272.769 121.027 C 273.006 120.821,273.200 120.584,273.200 120.499 C 273.200 120.414,273.808 119.767,274.550 119.062 C 276.384 117.319,276.757 117.000,276.959 117.000 C 277.275 117.000,279.800 114.428,279.800 114.105 C 279.800 113.733,276.431 110.400,276.055 110.400 C 275.968 110.400,275.653 110.175,275.357 109.900 C 275.060 109.625,274.724 109.400,274.609 109.400 C 274.494 109.400,274.400 109.331,274.400 109.247 C 274.400 109.095,273.807 108.733,273.150 108.485 C 272.957 108.413,272.800 108.274,272.800 108.177 C 272.800 108.080,272.665 108.000,272.500 108.000 C 272.335 108.000,272.200 107.920,272.200 107.822 C 272.200 107.725,271.885 107.585,271.500 107.513 C 271.115 107.441,270.800 107.296,270.800 107.191 C 270.800 107.086,270.620 107.000,270.400 107.000 C 270.180 107.000,270.000 106.910,270.000 106.800 C 270.000 106.690,269.815 106.600,269.588 106.600 C 269.362 106.600,269.226 106.520,269.286 106.422 C 269.347 106.325,268.992 106.184,268.498 106.110 C 268.004 106.036,267.600 105.891,267.600 105.788 C 267.600 105.684,267.375 105.600,267.100 105.600 C 266.825 105.600,266.600 105.529,266.600 105.443 C 266.600 105.300,265.323 104.966,263.650 104.671 C 263.293 104.608,263.000 104.476,263.000 104.378 C 263.000 104.280,262.647 104.200,262.217 104.200 C 261.786 104.200,261.403 104.115,261.367 104.010 C 261.330 103.906,260.240 103.757,258.943 103.680 C 257.647 103.603,256.539 103.464,256.482 103.370 C 256.344 103.148,250.056 103.148,249.918 103.370 M194.800 135.200 C 194.800 135.313,194.237 135.400,193.512 135.400 C 192.803 135.400,192.174 135.481,192.113 135.580 C 192.052 135.678,191.372 135.823,190.601 135.900 C 189.831 135.977,189.251 136.121,189.313 136.220 C 189.374 136.319,189.148 136.400,188.812 136.400 C 188.475 136.400,188.200 136.490,188.200 136.600 C 188.200 136.710,188.075 136.800,187.923 136.800 C 187.770 136.800,187.388 136.934,187.073 137.099 C 186.758 137.263,186.292 137.398,186.038 137.399 C 185.781 137.399,185.631 137.489,185.700 137.600 C 185.768 137.710,185.638 137.800,185.412 137.800 C 185.185 137.800,185.000 137.870,185.000 137.955 C 185.000 138.041,184.596 138.288,184.102 138.505 C 183.608 138.722,183.203 138.968,183.202 139.050 C 183.201 139.133,183.065 139.200,182.900 139.200 C 182.735 139.200,182.600 139.270,182.600 139.355 C 182.600 139.440,182.263 139.687,181.850 139.905 C 181.438 140.122,180.901 140.480,180.657 140.700 C 180.414 140.920,179.848 141.415,179.400 141.800 C 178.139 142.884,175.200 145.903,175.200 146.114 C 175.200 146.177,175.088 146.347,174.950 146.492 C 174.813 146.637,174.520 147.006,174.300 147.311 C 174.080 147.616,173.788 147.980,173.650 148.119 C 173.513 148.258,173.400 148.468,173.400 148.586 C 173.400 148.704,173.327 148.800,173.238 148.800 C 173.150 148.800,172.918 149.160,172.724 149.600 C 172.530 150.040,172.295 150.400,172.201 150.400 C 172.108 150.400,171.972 150.670,171.900 151.000 C 171.828 151.330,171.685 151.600,171.584 151.600 C 171.483 151.600,171.400 151.780,171.400 152.000 C 171.400 152.220,171.310 152.400,171.200 152.400 C 171.090 152.400,171.000 152.535,171.000 152.700 C 171.000 152.865,170.910 153.000,170.800 153.000 C 170.690 153.000,170.600 153.219,170.600 153.487 C 170.600 154.025,170.768 154.104,172.350 154.304 C 172.928 154.378,173.400 154.519,173.400 154.619 C 173.400 154.718,173.630 154.800,173.912 154.800 C 174.202 154.800,174.370 154.887,174.300 155.000 C 174.232 155.110,174.361 155.200,174.587 155.200 C 175.089 155.200,176.600 155.836,176.600 156.047 C 176.600 156.131,176.735 156.200,176.900 156.200 C 177.065 156.200,177.200 156.279,177.200 156.375 C 177.200 156.471,177.447 156.600,177.750 156.661 C 178.053 156.722,178.499 156.959,178.742 157.186 C 178.985 157.414,179.277 157.600,179.392 157.600 C 179.506 157.600,179.600 157.680,179.600 157.778 C 179.600 157.876,179.804 158.008,180.054 158.071 C 180.304 158.133,180.705 158.368,180.946 158.592 C 181.186 158.817,181.477 159.000,181.592 159.000 C 181.706 159.000,181.800 159.084,181.800 159.187 C 181.800 159.289,181.964 159.425,182.165 159.489 C 182.365 159.552,182.705 159.768,182.920 159.968 C 183.135 160.168,183.578 160.505,183.905 160.716 C 184.530 161.120,184.961 161.480,186.097 162.550 C 186.476 162.908,186.872 163.200,186.977 163.200 C 187.082 163.200,187.557 163.559,188.034 163.998 C 189.639 165.477,189.785 165.600,189.943 165.605 C 190.081 165.610,190.937 166.321,192.343 167.598 C 192.586 167.819,192.884 168.000,193.005 168.000 C 193.125 168.000,193.168 168.090,193.100 168.200 C 193.032 168.310,193.095 168.400,193.240 168.400 C 193.385 168.400,193.728 168.606,194.002 168.859 C 194.959 169.740,196.379 170.602,197.131 170.758 C 197.756 170.888,197.922 171.028,198.072 171.553 C 198.173 171.904,198.423 172.244,198.628 172.309 C 198.832 172.374,199.000 172.511,199.000 172.613 C 199.000 172.716,199.135 172.800,199.300 172.800 C 199.465 172.800,199.600 172.890,199.600 173.000 C 199.600 173.110,199.750 173.200,199.933 173.200 C 200.117 173.200,200.209 173.258,200.139 173.328 C 200.069 173.398,200.391 173.642,200.856 173.870 C 201.320 174.097,201.830 174.410,201.988 174.565 C 202.146 174.720,202.529 174.935,202.838 175.043 C 203.147 175.151,203.400 175.320,203.400 175.420 C 203.400 175.519,203.535 175.600,203.700 175.600 C 203.865 175.600,204.000 175.690,204.000 175.800 C 204.000 175.910,204.134 176.000,204.299 176.000 C 204.715 176.000,206.200 176.661,206.200 176.847 C 206.200 176.931,206.385 177.000,206.612 177.000 C 206.838 177.000,206.974 177.080,206.914 177.177 C 206.854 177.275,207.297 177.416,207.899 177.491 C 208.501 177.566,209.045 177.712,209.109 177.814 C 209.172 177.916,209.483 178.000,209.800 178.000 C 210.117 178.000,210.432 178.090,210.500 178.200 C 210.568 178.310,210.984 178.400,211.424 178.400 C 211.864 178.400,212.175 178.479,212.115 178.576 C 212.055 178.673,212.949 178.817,214.103 178.896 C 215.256 178.974,216.250 179.120,216.312 179.219 C 216.373 179.319,216.868 179.400,217.412 179.400 C 217.955 179.400,218.400 179.478,218.400 179.573 C 218.400 179.668,218.963 179.792,219.650 179.849 C 221.464 180.001,222.460 180.616,222.240 181.450 C 222.218 181.533,222.290 181.600,222.400 181.600 C 222.510 181.600,222.600 181.820,222.600 182.088 C 222.600 182.357,222.680 182.626,222.779 182.687 C 223.172 182.930,223.587 187.800,223.215 187.800 C 223.090 187.800,223.000 188.221,223.000 188.800 C 223.000 189.350,222.910 189.800,222.800 189.800 C 222.690 189.800,222.600 190.110,222.600 190.488 C 222.600 190.867,222.502 191.237,222.383 191.311 C 222.263 191.385,222.210 191.615,222.264 191.823 C 222.318 192.030,222.281 192.200,222.181 192.200 C 222.082 192.200,222.000 192.425,222.000 192.700 C 222.000 192.975,221.910 193.200,221.800 193.200 C 221.690 193.200,221.600 193.475,221.600 193.812 C 221.600 194.169,221.517 194.372,221.400 194.300 C 221.290 194.232,221.200 194.326,221.200 194.508 C 221.200 194.846,220.620 196.218,220.400 196.400 C 220.236 196.535,219.600 197.917,219.600 198.136 C 219.600 198.233,219.420 198.441,219.200 198.600 C 218.980 198.759,218.800 198.996,218.800 199.128 C 218.800 199.451,218.138 200.597,217.950 200.599 C 217.868 200.599,217.800 200.735,217.800 200.900 C 217.800 201.065,217.716 201.200,217.613 201.200 C 217.511 201.200,217.376 201.361,217.314 201.557 C 217.251 201.753,216.843 202.316,216.406 202.807 C 215.969 203.298,215.609 203.775,215.606 203.867 C 215.598 204.100,209.869 209.800,209.643 209.800 C 209.542 209.800,209.187 210.061,208.854 210.379 C 208.520 210.697,208.057 211.018,207.824 211.092 C 207.591 211.166,207.400 211.311,207.400 211.413 C 207.400 211.516,207.306 211.600,207.192 211.600 C 207.077 211.600,206.785 211.786,206.542 212.014 C 206.299 212.241,205.849 212.478,205.543 212.540 C 205.237 212.602,205.031 212.698,205.086 212.753 C 205.216 212.883,203.067 214.000,202.688 214.000 C 202.530 214.000,202.400 214.090,202.400 214.200 C 202.400 214.310,202.264 214.400,202.097 214.400 C 201.931 214.400,201.638 214.482,201.447 214.583 C 200.573 215.045,199.603 215.400,199.220 215.400 C 198.989 215.400,198.800 215.490,198.800 215.600 C 198.800 215.710,198.575 215.800,198.300 215.800 C 198.025 215.800,197.800 215.884,197.800 215.986 C 197.800 216.088,197.306 216.233,196.702 216.308 C 196.099 216.384,195.654 216.525,195.714 216.623 C 195.774 216.720,195.548 216.800,195.212 216.800 C 194.875 216.800,194.600 216.890,194.600 217.000 C 194.600 217.110,194.348 217.200,194.040 217.200 C 193.732 217.200,193.388 217.292,193.275 217.405 C 193.162 217.518,192.604 217.666,192.035 217.733 C 191.466 217.801,191.000 217.933,191.000 218.028 C 191.000 218.123,190.735 218.200,190.412 218.200 C 190.088 218.200,189.774 218.280,189.714 218.378 C 189.653 218.476,189.310 218.607,188.952 218.671 C 186.850 219.041,185.615 219.319,185.483 219.450 C 185.401 219.533,184.988 219.600,184.567 219.600 C 184.145 219.600,183.800 219.690,183.800 219.800 C 183.800 219.910,183.536 220.000,183.213 220.000 C 182.890 220.000,182.390 220.090,182.101 220.200 C 181.812 220.310,180.951 220.458,180.188 220.528 C 179.424 220.599,178.800 220.725,178.800 220.809 C 178.800 220.892,178.418 221.009,177.950 221.068 C 177.483 221.128,176.470 221.272,175.700 221.388 C 174.930 221.504,174.053 221.618,173.750 221.642 C 173.447 221.666,173.200 221.756,173.200 221.843 C 173.200 221.929,172.705 222.000,172.100 222.000 C 171.495 222.000,171.000 222.090,171.000 222.200 C 171.000 222.310,170.555 222.400,170.012 222.400 C 169.468 222.400,168.973 222.481,168.912 222.581 C 168.850 222.680,167.855 222.826,166.700 222.905 C 165.545 222.983,164.600 223.119,164.600 223.205 C 164.600 223.292,164.128 223.414,163.550 223.477 C 160.779 223.777,160.286 223.853,160.100 224.002 C 159.990 224.090,158.888 224.227,157.650 224.307 C 156.413 224.386,155.400 224.530,155.400 224.626 C 155.400 224.722,154.923 224.800,154.340 224.800 C 153.757 224.800,153.194 224.882,153.090 224.982 C 152.985 225.083,152.405 225.216,151.800 225.279 C 151.195 225.342,149.643 225.501,148.350 225.633 C 147.058 225.764,146.000 225.945,146.000 226.036 C 146.000 226.126,145.510 226.200,144.912 226.200 C 144.313 226.200,143.775 226.278,143.716 226.374 C 143.616 226.535,139.808 226.920,139.250 226.825 C 139.113 226.802,139.000 226.876,139.000 226.991 C 139.000 227.111,138.531 227.200,137.900 227.200 C 137.295 227.200,136.800 227.282,136.800 227.381 C 136.800 227.481,136.328 227.614,135.750 227.677 C 131.380 228.154,130.400 228.293,130.400 228.436 C 130.400 228.526,129.955 228.600,129.412 228.600 C 128.868 228.600,128.368 228.690,128.300 228.800 C 128.232 228.910,127.737 229.000,127.200 229.000 C 126.663 229.000,126.174 229.080,126.113 229.179 C 126.052 229.277,125.192 229.421,124.201 229.500 C 123.211 229.578,122.400 229.723,122.400 229.821 C 122.400 229.920,121.955 230.000,121.412 230.000 C 120.868 230.000,120.375 230.078,120.316 230.174 C 120.257 230.270,119.734 230.405,119.154 230.474 C 118.574 230.543,117.875 230.641,117.600 230.693 C 117.325 230.745,116.583 230.846,115.950 230.918 C 115.317 230.991,114.800 231.128,114.800 231.225 C 114.800 231.321,114.400 231.400,113.912 231.400 C 113.423 231.400,112.968 231.490,112.900 231.600 C 112.832 231.710,112.602 231.800,112.388 231.800 C 112.175 231.800,112.000 231.935,112.000 232.100 C 112.000 232.438,114.283 232.550,114.486 232.222 C 114.547 232.124,116.352 231.978,118.498 231.898 C 120.644 231.817,122.400 231.672,122.400 231.576 C 122.400 231.479,123.282 231.400,124.360 231.400 C 125.438 231.400,126.405 231.316,126.510 231.213 C 126.615 231.111,127.555 230.978,128.600 230.918 C 129.645 230.858,132.368 230.703,134.650 230.573 C 136.933 230.443,138.800 230.261,138.800 230.168 C 138.800 230.076,139.700 230.000,140.800 230.000 C 141.900 230.000,142.800 229.923,142.800 229.829 C 142.800 229.735,143.947 229.592,145.350 229.512 C 146.753 229.431,148.305 229.330,148.800 229.287 C 149.295 229.244,150.713 229.151,151.950 229.082 C 153.188 229.013,154.200 228.876,154.200 228.778 C 154.200 228.680,154.960 228.600,155.888 228.600 C 156.817 228.600,157.624 228.523,157.682 228.428 C 157.766 228.294,160.934 228.037,163.850 227.927 C 164.043 227.920,164.200 227.844,164.200 227.757 C 164.200 227.671,164.870 227.600,165.688 227.600 C 166.507 227.600,167.232 227.510,167.300 227.400 C 167.368 227.290,168.043 227.200,168.800 227.200 C 169.557 227.200,170.227 227.118,170.289 227.018 C 170.351 226.918,171.571 226.771,173.001 226.692 C 174.430 226.613,175.600 226.478,175.600 226.391 C 175.600 226.305,176.163 226.186,176.850 226.127 C 177.538 226.069,178.730 225.923,179.500 225.803 C 180.270 225.683,181.868 225.483,183.050 225.358 C 184.233 225.234,185.200 225.058,185.200 224.966 C 185.200 224.875,185.695 224.800,186.300 224.800 C 186.905 224.800,187.400 224.723,187.400 224.629 C 187.400 224.487,189.072 224.250,190.933 224.128 C 191.172 224.113,191.434 224.032,191.517 223.950 C 191.599 223.867,192.051 223.800,192.522 223.800 C 192.992 223.800,193.432 223.710,193.500 223.600 C 193.568 223.490,194.023 223.400,194.512 223.400 C 195.000 223.400,195.400 223.319,195.400 223.221 C 195.400 223.122,196.121 222.978,197.001 222.900 C 197.882 222.822,198.652 222.678,198.713 222.579 C 198.774 222.481,199.178 222.400,199.612 222.400 C 200.045 222.400,200.400 222.310,200.400 222.200 C 200.400 222.090,200.665 222.000,200.988 222.000 C 201.312 222.000,201.629 221.915,201.693 221.812 C 201.757 221.708,202.212 221.563,202.705 221.489 C 203.197 221.415,203.600 221.275,203.600 221.177 C 203.600 220.904,204.551 220.968,204.686 221.250 C 204.751 221.388,204.768 221.301,204.723 221.057 C 204.653 220.680,204.841 220.518,205.970 219.977 C 206.702 219.627,207.480 219.185,207.700 218.993 C 208.097 218.649,209.058 218.268,209.146 218.421 C 209.172 218.464,209.334 218.298,209.507 218.050 C 209.681 217.803,209.920 217.600,210.038 217.600 C 210.157 217.600,210.463 217.375,210.718 217.100 C 210.972 216.825,211.256 216.600,211.349 216.600 C 211.441 216.600,211.914 216.195,212.400 215.700 C 212.886 215.205,213.365 214.800,213.464 214.800 C 213.564 214.800,214.213 214.215,214.907 213.500 C 215.601 212.785,216.118 212.200,216.054 212.200 C 215.991 212.200,216.267 211.881,216.669 211.490 C 217.071 211.100,217.400 210.738,217.400 210.686 C 217.400 210.497,218.503 208.896,218.735 208.747 C 218.867 208.663,219.176 208.191,219.423 207.697 C 219.669 207.204,219.945 206.800,220.035 206.800 C 220.126 206.800,220.200 206.620,220.200 206.400 C 220.200 206.180,220.272 206.000,220.360 206.000 C 220.448 206.000,220.636 205.679,220.777 205.287 C 220.919 204.895,221.162 204.525,221.318 204.466 C 221.473 204.406,221.600 204.142,221.600 203.879 C 221.600 203.615,221.680 203.400,221.778 203.400 C 221.875 203.400,222.015 203.085,222.087 202.700 C 222.159 202.315,222.304 202.000,222.409 202.000 C 222.514 202.000,222.600 201.820,222.600 201.600 C 222.600 201.380,222.690 201.200,222.800 201.200 C 222.910 201.200,223.000 200.975,223.000 200.700 C 223.000 200.425,223.084 200.200,223.188 200.200 C 223.291 200.200,223.436 199.795,223.510 199.300 C 223.585 198.805,223.725 198.400,223.823 198.400 C 223.920 198.400,224.000 198.175,224.000 197.900 C 224.000 197.625,224.090 197.400,224.200 197.400 C 224.310 197.400,224.400 197.175,224.400 196.900 C 224.400 196.625,224.478 196.400,224.574 196.400 C 224.670 196.400,224.809 195.863,224.883 195.206 C 224.958 194.549,225.104 193.959,225.209 193.894 C 225.314 193.829,225.400 193.422,225.400 192.988 C 225.400 192.555,225.477 192.200,225.570 192.200 C 225.664 192.200,225.817 191.413,225.911 190.450 C 226.238 187.088,226.011 180.200,225.574 180.200 C 225.478 180.200,225.400 179.885,225.400 179.500 C 225.400 179.115,225.320 178.800,225.223 178.800 C 225.126 178.800,224.985 178.310,224.910 177.710 C 224.835 177.111,224.600 176.261,224.387 175.820 C 224.174 175.380,224.000 174.925,224.000 174.810 C 224.000 174.694,223.920 174.600,223.822 174.600 C 223.725 174.600,223.585 174.285,223.513 173.900 C 223.441 173.515,223.296 173.200,223.191 173.200 C 223.086 173.200,223.000 173.020,223.000 172.800 C 223.000 172.580,222.924 172.400,222.831 172.400 C 222.739 172.400,222.493 172.085,222.286 171.700 C 222.079 171.315,221.840 171.000,221.755 171.000 C 221.670 171.000,221.600 170.910,221.600 170.800 C 221.600 170.371,217.043 165.800,216.615 165.800 C 216.507 165.800,216.193 165.575,215.918 165.300 C 215.643 165.025,215.363 164.800,215.296 164.800 C 215.184 164.800,213.837 163.845,213.600 163.598 C 213.545 163.541,213.119 163.315,212.652 163.097 C 212.186 162.879,211.804 162.633,211.802 162.550 C 211.801 162.468,211.665 162.400,211.500 162.400 C 211.335 162.400,211.200 162.320,211.200 162.222 C 211.200 162.125,210.885 161.985,210.500 161.913 C 210.115 161.841,209.800 161.696,209.800 161.591 C 209.800 161.486,209.665 161.400,209.500 161.400 C 209.335 161.400,209.200 161.310,209.200 161.200 C 209.200 161.090,209.020 161.000,208.800 161.000 C 208.580 161.000,208.400 160.914,208.400 160.809 C 208.400 160.704,208.085 160.559,207.700 160.487 C 207.315 160.415,207.000 160.275,207.000 160.178 C 207.000 160.080,206.820 160.000,206.600 160.000 C 206.380 160.000,206.200 159.910,206.200 159.800 C 206.200 159.690,206.043 159.599,205.850 159.599 C 205.657 159.598,205.242 159.463,204.927 159.299 C 204.612 159.134,204.230 159.000,204.077 159.000 C 203.925 159.000,203.800 158.910,203.800 158.800 C 203.800 158.690,203.570 158.600,203.288 158.600 C 203.007 158.600,202.826 158.520,202.886 158.422 C 202.947 158.325,202.594 158.185,202.103 158.111 C 201.611 158.037,201.157 157.892,201.093 157.788 C 201.029 157.685,200.802 157.600,200.588 157.600 C 200.375 157.600,200.200 157.510,200.200 157.400 C 200.200 157.290,199.975 157.200,199.700 157.200 C 199.425 157.200,199.200 157.120,199.200 157.023 C 199.200 156.925,198.797 156.785,198.305 156.711 C 197.812 156.637,197.357 156.492,197.293 156.388 C 197.229 156.285,196.957 156.200,196.688 156.200 C 196.420 156.200,196.200 156.110,196.200 156.000 C 196.200 155.890,195.975 155.800,195.700 155.800 C 195.425 155.800,195.200 155.716,195.200 155.613 C 195.200 155.510,194.908 155.383,194.550 155.332 C 194.192 155.281,196.216 155.256,199.047 155.276 C 202.777 155.303,204.261 155.381,204.437 155.557 C 204.571 155.691,204.977 155.800,205.340 155.800 C 205.703 155.800,206.000 155.890,206.000 156.000 C 206.000 156.110,206.270 156.200,206.600 156.200 C 206.930 156.200,207.200 156.280,207.200 156.377 C 207.200 156.475,207.603 156.615,208.095 156.689 C 208.588 156.763,209.043 156.908,209.107 157.012 C 209.171 157.115,209.443 157.200,209.712 157.200 C 209.980 157.200,210.200 157.290,210.200 157.400 C 210.200 157.510,210.385 157.600,210.612 157.600 C 210.838 157.600,210.975 157.679,210.915 157.775 C 210.856 157.871,211.166 158.007,211.604 158.077 C 212.042 158.147,212.400 158.294,212.400 158.402 C 212.400 158.511,212.535 158.600,212.700 158.600 C 212.865 158.600,213.000 158.690,213.000 158.800 C 213.000 158.910,213.185 159.000,213.412 159.000 C 213.638 159.000,213.775 159.079,213.715 159.176 C 213.655 159.272,213.853 159.401,214.153 159.462 C 214.454 159.523,214.882 159.736,215.105 159.936 C 215.328 160.136,215.842 160.469,216.246 160.677 C 216.651 160.884,217.162 161.221,217.382 161.427 C 217.603 161.632,217.855 161.800,217.942 161.800 C 218.029 161.800,218.479 162.138,218.942 162.550 C 219.406 162.963,220.162 163.615,220.624 164.000 C 221.086 164.385,221.784 164.970,222.175 165.300 L 222.886 165.900 222.458 165.300 C 219.244 160.796,208.367 154.359,200.300 152.186 C 199.970 152.097,198.540 151.719,197.121 151.345 C 194.038 150.532,194.201 150.356,197.703 150.716 C 208.309 151.808,217.883 156.282,224.589 163.281 C 225.437 164.165,225.800 164.201,225.800 163.400 C 225.800 163.070,225.710 162.800,225.600 162.800 C 225.490 162.800,225.400 162.485,225.400 162.100 C 225.400 161.715,225.322 161.400,225.226 161.400 C 225.130 161.400,224.991 160.860,224.916 160.200 C 224.841 159.540,224.695 159.000,224.590 159.000 C 224.486 159.000,224.400 158.775,224.400 158.500 C 224.400 158.225,224.310 158.000,224.200 158.000 C 224.090 158.000,224.000 157.730,224.000 157.400 C 224.000 157.070,223.922 156.800,223.826 156.800 C 223.730 156.800,223.594 156.440,223.523 156.000 C 223.453 155.560,223.306 155.200,223.198 155.200 C 223.089 155.200,223.000 155.020,223.000 154.800 C 223.000 154.580,222.910 154.400,222.800 154.400 C 222.690 154.400,222.600 154.275,222.600 154.123 C 222.600 153.970,222.466 153.588,222.301 153.273 C 222.137 152.958,222.002 152.542,222.001 152.350 C 222.001 152.157,221.910 152.000,221.800 152.000 C 221.690 152.000,221.600 151.865,221.600 151.700 C 221.600 151.535,221.510 151.400,221.400 151.400 C 221.290 151.400,221.200 151.220,221.200 151.000 C 221.200 150.780,221.112 150.600,221.004 150.600 C 220.896 150.600,220.751 150.375,220.682 150.100 C 220.613 149.825,220.491 149.600,220.410 149.600 C 220.330 149.600,220.019 149.150,219.719 148.600 C 219.420 148.050,219.097 147.600,219.001 147.600 C 218.905 147.600,218.770 147.421,218.701 147.203 C 218.632 146.984,218.304 146.534,217.972 146.203 C 217.640 145.871,217.421 145.600,217.485 145.600 C 217.612 145.600,217.430 145.396,215.765 143.674 C 215.141 143.028,214.362 142.275,214.034 142.000 C 213.707 141.725,213.480 141.433,213.531 141.350 C 213.582 141.268,213.487 141.200,213.321 141.200 C 213.154 141.200,212.793 140.975,212.518 140.700 C 212.243 140.425,211.938 140.200,211.840 140.200 C 211.742 140.200,211.401 139.975,211.081 139.700 C 210.761 139.425,210.382 139.200,210.238 139.200 C 210.094 139.200,210.032 139.110,210.100 139.000 C 210.168 138.890,210.075 138.800,209.893 138.800 C 209.531 138.800,208.340 138.190,208.233 137.950 C 208.197 137.868,208.039 137.800,207.883 137.800 C 207.728 137.800,207.600 137.710,207.600 137.600 C 207.600 137.490,207.443 137.399,207.250 137.399 C 207.058 137.398,206.642 137.263,206.327 137.099 C 206.012 136.934,205.585 136.800,205.377 136.800 C 205.170 136.800,205.000 136.710,205.000 136.600 C 205.000 136.490,204.775 136.400,204.500 136.400 C 204.225 136.400,204.000 136.317,204.000 136.216 C 204.000 136.115,203.414 135.969,202.697 135.892 C 201.981 135.816,201.345 135.673,201.285 135.576 C 201.225 135.479,200.597 135.400,199.888 135.400 C 199.163 135.400,198.600 135.313,198.600 135.200 C 198.600 135.081,197.833 135.000,196.700 135.000 C 195.567 135.000,194.800 135.081,194.800 135.200 " stroke="none" fill="#31ab34" fill-rule="evenodd"></path><path id="path1" d="M209.016 100.961 C 208.985 101.464,210.627 109.327,211.321 112.000 C 212.288 115.727,213.859 120.182,215.306 123.300 C 215.561 123.850,216.035 124.885,216.360 125.600 C 216.684 126.315,217.506 128.019,218.185 129.387 C 219.557 132.146,220.620 134.902,220.987 136.650 C 221.120 137.282,221.312 137.800,221.414 137.800 C 221.516 137.800,221.600 138.025,221.600 138.300 C 221.600 138.575,221.679 138.800,221.775 138.800 C 221.871 138.800,222.019 139.093,222.103 139.450 C 222.187 139.808,222.278 140.145,222.305 140.200 C 222.332 140.255,222.420 140.503,222.500 140.750 C 222.581 140.998,222.726 141.200,222.823 141.200 C 222.920 141.200,223.000 141.470,223.000 141.800 C 223.000 142.130,223.089 142.400,223.198 142.400 C 223.306 142.400,223.453 142.760,223.523 143.200 C 223.594 143.640,223.730 144.000,223.826 144.000 C 223.922 144.000,224.000 144.180,224.000 144.400 C 224.000 144.620,224.090 144.800,224.200 144.800 C 224.310 144.800,224.400 145.025,224.400 145.300 C 224.400 145.575,224.480 145.800,224.577 145.800 C 224.675 145.800,224.815 146.205,224.890 146.700 C 224.964 147.195,225.109 147.600,225.212 147.600 C 225.316 147.600,225.400 147.825,225.400 148.100 C 225.400 148.375,225.490 148.600,225.600 148.600 C 225.710 148.600,225.800 148.825,225.800 149.100 C 225.800 149.375,225.884 149.600,225.988 149.600 C 226.091 149.600,226.236 150.005,226.310 150.500 C 226.385 150.995,226.525 151.400,226.623 151.400 C 226.720 151.400,226.800 151.625,226.800 151.900 C 226.800 152.175,226.880 152.400,226.977 152.400 C 227.179 152.400,227.416 153.431,227.403 154.250 C 227.398 154.553,227.485 154.800,227.597 154.800 C 227.709 154.800,227.800 155.025,227.800 155.300 C 227.800 155.575,227.890 155.800,228.000 155.800 C 228.110 155.800,228.200 156.115,228.200 156.500 C 228.200 156.885,228.282 157.200,228.383 157.200 C 228.484 157.200,228.629 157.876,228.707 158.703 C 228.784 159.529,228.927 160.255,229.024 160.315 C 229.121 160.375,229.200 160.868,229.200 161.412 C 229.200 161.955,229.290 162.400,229.400 162.400 C 229.517 162.400,229.600 163.063,229.600 163.988 C 229.600 164.862,229.690 165.632,229.800 165.700 C 229.910 165.768,230.000 166.448,230.000 167.212 C 230.000 168.004,229.914 168.600,229.800 168.600 C 229.690 168.600,229.600 168.521,229.600 168.425 C 229.600 168.329,229.195 167.827,228.700 167.311 C 228.205 166.794,227.800 166.304,227.800 166.222 C 227.800 166.139,227.597 165.880,227.350 165.646 C 226.822 165.145,226.504 164.830,226.045 164.350 C 225.862 164.158,225.614 164.000,225.495 164.000 C 225.376 164.000,224.968 163.676,224.589 163.281 C 217.883 156.282,208.309 151.808,197.703 150.716 C 194.201 150.356,194.038 150.532,197.121 151.345 C 198.540 151.719,199.970 152.097,200.300 152.186 C 204.445 153.303,211.868 156.736,215.600 159.263 C 218.575 161.278,222.586 164.937,222.310 165.385 C 222.233 165.509,222.258 165.585,222.365 165.555 C 222.472 165.525,222.551 165.545,222.539 165.600 C 222.518 165.702,222.950 166.248,223.734 167.110 C 223.973 167.372,224.227 167.770,224.298 167.994 C 224.369 168.217,224.496 168.400,224.581 168.400 C 224.666 168.400,224.908 168.759,225.118 169.198 C 225.328 169.636,225.568 169.996,225.650 169.998 C 225.732 169.999,225.800 170.170,225.800 170.379 C 225.800 170.587,225.935 170.809,226.100 170.872 C 226.265 170.936,226.400 171.152,226.400 171.354 C 226.400 171.786,226.842 172.796,227.032 172.798 C 227.105 172.799,227.226 173.160,227.300 173.599 C 227.374 174.038,227.517 174.449,227.617 174.511 C 227.718 174.573,227.800 174.843,227.800 175.112 C 227.800 175.380,227.881 175.600,227.979 175.600 C 228.077 175.600,228.207 175.938,228.266 176.350 C 228.325 176.763,228.465 177.550,228.575 178.100 C 228.686 178.650,228.782 179.798,228.788 180.650 C 228.795 181.542,228.885 182.200,229.000 182.200 C 229.114 182.200,229.200 182.800,229.200 183.600 C 229.200 184.370,229.124 185.000,229.031 185.000 C 228.938 185.000,228.801 186.189,228.728 187.643 C 228.654 189.097,228.505 190.375,228.397 190.483 C 228.289 190.591,228.200 190.927,228.200 191.228 C 228.200 191.530,228.110 191.832,228.000 191.900 C 227.890 191.968,227.800 192.283,227.800 192.600 C 227.800 192.917,227.702 193.237,227.583 193.311 C 227.463 193.385,227.410 193.615,227.464 193.822 C 227.518 194.030,227.481 194.250,227.381 194.312 C 227.282 194.373,227.200 194.643,227.200 194.912 C 227.200 195.180,227.110 195.400,227.000 195.400 C 226.890 195.400,226.800 195.625,226.800 195.900 C 226.800 196.175,226.710 196.400,226.600 196.400 C 226.490 196.400,226.400 196.579,226.400 196.799 C 226.400 197.292,225.761 198.800,225.553 198.800 C 225.469 198.800,225.400 198.980,225.400 199.200 C 225.400 199.420,225.310 199.600,225.200 199.600 C 225.090 199.600,225.000 199.739,225.000 199.910 C 225.000 200.223,224.450 201.415,224.220 201.600 C 224.152 201.655,223.839 202.218,223.524 202.850 C 223.210 203.482,222.873 204.000,222.776 204.000 C 222.679 204.000,222.600 204.183,222.600 204.406 C 222.600 204.630,222.465 204.864,222.300 204.928 C 222.135 204.991,222.000 205.213,222.000 205.421 C 222.000 205.630,221.912 205.800,221.805 205.800 C 221.698 205.800,221.468 206.075,221.294 206.411 C 220.967 207.043,220.757 207.319,219.779 208.394 C 219.460 208.744,219.200 209.106,219.200 209.197 C 219.200 209.289,218.695 209.890,218.077 210.532 C 217.460 211.174,216.694 211.997,216.375 212.360 C 216.055 212.723,215.703 212.964,215.592 212.895 C 215.481 212.827,215.415 212.864,215.445 212.980 C 215.508 213.218,213.429 215.400,213.140 215.400 C 213.036 215.400,213.072 215.243,213.219 215.050 C 213.367 214.857,213.243 214.918,212.944 215.185 C 212.340 215.723,212.202 216.002,212.750 215.578 C 213.033 215.359,213.027 215.392,212.718 215.755 C 212.508 216.001,212.291 216.157,212.236 216.102 C 212.181 216.048,212.013 216.178,211.862 216.393 C 211.708 216.614,211.460 216.734,211.292 216.669 C 211.096 216.594,211.032 216.649,211.102 216.832 C 211.207 217.107,210.158 217.891,209.955 217.688 C 209.900 217.633,209.701 217.821,209.514 218.106 C 209.327 218.391,209.068 218.589,208.937 218.545 C 208.807 218.501,208.581 218.608,208.435 218.782 C 208.290 218.957,208.227 218.988,208.297 218.850 C 208.529 218.391,208.014 218.593,207.690 219.088 C 207.499 219.379,207.252 219.531,207.077 219.463 C 206.896 219.394,206.806 219.456,206.842 219.625 C 206.875 219.782,206.751 219.888,206.552 219.873 C 206.361 219.858,206.260 219.935,206.327 220.044 C 206.402 220.165,206.290 220.192,206.042 220.113 C 205.808 220.039,205.571 220.086,205.486 220.223 C 205.386 220.384,205.424 220.409,205.600 220.300 C 205.776 220.191,205.814 220.216,205.714 220.377 C 205.633 220.509,205.414 220.568,205.227 220.508 C 204.975 220.429,204.876 220.530,204.846 220.900 C 204.806 221.378,204.854 221.400,205.902 221.400 C 206.506 221.400,207.000 221.310,207.000 221.200 C 207.000 221.090,207.360 221.000,207.800 221.000 C 208.240 221.000,208.600 220.920,208.600 220.823 C 208.600 220.725,208.847 220.596,209.150 220.536 C 210.293 220.309,211.704 219.917,211.800 219.800 C 211.978 219.584,213.351 219.000,213.680 219.000 C 213.856 219.000,214.000 218.910,214.000 218.800 C 214.000 218.690,214.135 218.600,214.300 218.600 C 214.465 218.600,214.601 218.532,214.602 218.450 C 214.604 218.368,214.986 218.122,215.452 217.904 C 215.919 217.686,216.446 217.348,216.623 217.154 C 216.801 216.959,217.049 216.800,217.173 216.800 C 217.298 216.800,217.400 216.712,217.400 216.604 C 217.400 216.496,217.624 216.351,217.899 216.282 C 218.173 216.214,218.348 216.077,218.287 215.979 C 218.226 215.880,218.276 215.800,218.397 215.800 C 218.519 215.800,218.830 215.597,219.089 215.350 C 219.348 215.103,219.816 214.704,220.130 214.464 C 220.834 213.925,223.000 211.830,223.000 211.687 C 223.000 211.571,223.290 211.207,223.919 210.530 C 224.150 210.282,224.508 209.814,224.716 209.490 C 224.923 209.165,225.252 208.782,225.447 208.639 C 225.641 208.495,225.800 208.254,225.800 208.103 C 225.800 207.952,226.025 207.652,226.300 207.436 C 226.575 207.219,226.800 206.898,226.800 206.721 C 226.800 206.545,226.880 206.400,226.978 206.400 C 227.076 206.400,227.213 206.175,227.282 205.900 C 227.351 205.625,227.496 205.400,227.604 205.400 C 227.712 205.400,227.800 205.306,227.800 205.192 C 227.800 205.077,227.976 204.795,228.190 204.565 C 228.405 204.334,228.637 203.888,228.706 203.573 C 228.775 203.258,228.915 203.000,229.016 203.000 C 229.117 203.000,229.200 202.828,229.200 202.617 C 229.200 202.406,229.268 202.203,229.350 202.167 C 229.567 202.070,230.200 200.818,230.200 200.484 C 230.200 200.328,230.290 200.200,230.400 200.200 C 230.510 200.200,230.600 200.065,230.600 199.900 C 230.600 199.735,230.690 199.600,230.800 199.600 C 230.910 199.600,231.000 199.425,231.000 199.212 C 231.000 198.998,231.091 198.767,231.203 198.698 C 231.315 198.629,231.355 198.489,231.291 198.386 C 231.228 198.284,231.272 198.200,231.388 198.200 C 231.505 198.200,231.600 198.025,231.600 197.812 C 231.600 197.598,231.690 197.368,231.800 197.300 C 231.910 197.232,232.000 197.002,232.000 196.788 C 232.000 196.575,232.080 196.400,232.177 196.400 C 232.275 196.400,232.415 195.995,232.490 195.500 C 232.564 195.005,232.709 194.600,232.812 194.600 C 232.916 194.600,233.000 194.375,233.000 194.100 C 233.000 193.825,233.090 193.600,233.200 193.600 C 233.310 193.600,233.400 193.380,233.400 193.112 C 233.400 192.843,233.479 192.574,233.577 192.514 C 233.674 192.454,233.815 191.909,233.891 191.303 C 233.967 190.696,234.122 190.200,234.236 190.200 C 234.350 190.200,234.395 190.075,234.336 189.922 C 234.224 189.629,234.603 188.130,234.853 187.880 C 234.934 187.799,235.000 187.313,235.000 186.800 C 235.000 186.287,235.053 185.814,235.118 185.749 C 235.183 185.684,235.266 185.197,235.304 184.666 C 235.341 184.135,235.511 182.825,235.680 181.756 C 236.504 176.564,236.514 168.299,235.708 159.200 C 235.320 154.812,235.200 152.543,235.200 149.553 C 235.200 146.116,235.498 142.665,235.825 142.310 C 235.921 142.206,236.000 141.938,236.000 141.716 C 236.000 141.150,236.467 139.200,236.603 139.200 C 236.665 139.200,236.737 138.907,236.764 138.550 C 236.791 138.192,236.900 137.870,237.006 137.833 C 237.113 137.797,237.200 137.549,237.200 137.283 C 237.200 137.018,237.280 136.800,237.377 136.800 C 237.475 136.800,237.615 136.395,237.690 135.900 C 237.764 135.405,237.909 135.000,238.012 135.000 C 238.116 135.000,238.200 134.865,238.200 134.700 C 238.200 134.535,238.290 134.400,238.400 134.400 C 238.510 134.400,238.600 134.220,238.600 134.000 C 238.600 133.780,238.680 133.600,238.778 133.600 C 238.875 133.600,239.015 133.285,239.087 132.900 C 239.159 132.515,239.304 132.200,239.409 132.200 C 239.514 132.200,239.600 132.065,239.600 131.900 C 239.600 131.735,239.690 131.600,239.800 131.600 C 239.910 131.600,240.000 131.481,240.000 131.337 C 240.000 130.829,241.152 128.829,243.029 126.077 C 245.439 122.544,245.341 122.711,244.855 122.970 C 243.054 123.935,237.510 130.670,235.733 134.054 C 235.199 135.069,234.622 136.058,234.449 136.251 C 234.277 136.444,234.192 136.658,234.260 136.727 C 234.328 136.795,234.236 137.132,234.055 137.475 C 233.873 137.819,233.749 138.347,233.778 138.650 C 233.807 138.953,233.733 139.200,233.615 139.200 C 233.494 139.200,233.400 139.591,233.400 140.100 C 233.400 140.595,233.310 141.000,233.200 141.000 C 233.090 141.000,233.000 141.432,233.000 141.960 C 233.000 142.488,232.915 143.006,232.810 143.110 C 232.706 143.215,232.557 145.171,232.480 147.457 C 232.402 149.744,232.262 151.662,232.169 151.719 C 232.076 151.777,232.000 152.808,232.000 154.012 C 232.000 156.360,231.679 156.911,231.327 155.167 C 231.312 155.093,231.232 154.966,231.150 154.883 C 231.068 154.801,231.000 154.523,231.000 154.267 C 231.000 154.010,230.910 153.800,230.800 153.800 C 230.690 153.800,230.600 153.620,230.600 153.400 C 230.600 153.180,230.510 153.000,230.400 153.000 C 230.290 153.000,230.200 152.775,230.200 152.500 C 230.200 152.225,230.113 152.000,230.006 152.000 C 229.900 152.000,229.864 151.865,229.928 151.700 C 229.998 151.517,229.928 151.400,229.748 151.400 C 229.553 151.400,228.870 149.972,227.715 147.150 C 226.759 144.813,225.898 142.720,225.802 142.500 C 225.705 142.280,225.518 141.740,225.385 141.300 C 225.252 140.860,225.094 140.365,225.033 140.200 C 224.973 140.035,224.907 139.810,224.887 139.700 C 224.802 139.232,224.300 138.200,224.156 138.200 C 224.070 138.200,224.000 137.975,224.000 137.700 C 224.000 137.425,223.920 137.200,223.822 137.200 C 223.725 137.200,223.585 136.885,223.513 136.500 C 223.441 136.115,223.296 135.800,223.191 135.800 C 223.086 135.800,223.000 135.620,223.000 135.400 C 223.000 135.180,222.910 135.000,222.800 135.000 C 222.690 135.000,222.600 134.873,222.600 134.717 C 222.600 134.561,222.511 134.403,222.402 134.367 C 222.293 134.330,222.183 134.053,222.158 133.750 C 222.130 133.410,221.996 133.199,221.806 133.198 C 221.638 133.196,221.344 132.859,221.153 132.448 C 220.962 132.036,219.994 130.008,219.003 127.939 C 218.011 125.871,217.200 124.145,217.200 124.104 C 217.200 124.063,216.874 123.325,216.476 122.465 C 214.388 117.950,212.732 113.168,210.292 104.600 C 209.901 103.225,209.501 101.920,209.405 101.700 C 209.308 101.480,209.185 101.165,209.130 101.000 C 209.065 100.801,209.026 100.788,209.016 100.961 M191.050 111.341 C 190.803 111.389,190.600 111.512,190.600 111.614 C 190.600 111.716,190.465 111.800,190.300 111.800 C 190.135 111.800,190.000 111.890,190.000 112.000 C 190.000 112.110,189.865 112.200,189.700 112.200 C 189.535 112.200,189.400 112.288,189.400 112.396 C 189.400 112.504,189.175 112.649,188.900 112.718 C 188.625 112.787,188.400 112.924,188.400 113.022 C 188.400 113.120,188.306 113.200,188.192 113.200 C 188.077 113.200,187.786 113.383,187.546 113.608 C 187.305 113.832,186.904 114.067,186.654 114.129 C 186.404 114.192,186.200 114.324,186.200 114.422 C 186.200 114.520,186.065 114.600,185.900 114.600 C 185.735 114.600,185.600 114.670,185.600 114.755 C 185.600 114.840,185.285 115.079,184.900 115.286 C 184.515 115.493,184.200 115.739,184.200 115.831 C 184.200 115.924,184.065 116.000,183.900 116.000 C 183.735 116.000,183.600 116.084,183.600 116.187 C 183.600 116.289,183.398 116.437,183.150 116.515 C 182.903 116.593,182.564 116.802,182.397 116.979 C 182.079 117.316,181.504 117.711,181.000 117.937 C 180.835 118.012,180.554 118.236,180.377 118.436 C 180.199 118.636,179.951 118.800,179.827 118.800 C 179.702 118.800,179.600 118.884,179.600 118.987 C 179.600 119.089,179.405 119.235,179.167 119.310 C 178.929 119.386,178.520 119.662,178.258 119.924 C 177.996 120.186,177.651 120.400,177.491 120.400 C 177.331 120.400,177.200 120.490,177.200 120.600 C 177.200 120.710,177.106 120.800,176.991 120.800 C 176.876 120.800,176.557 121.025,176.282 121.300 C 176.007 121.575,175.671 121.800,175.535 121.800 C 175.399 121.800,175.159 121.980,175.000 122.200 C 174.841 122.420,174.597 122.600,174.456 122.600 C 174.315 122.600,174.200 122.684,174.200 122.787 C 174.200 122.889,173.998 123.037,173.750 123.115 C 173.503 123.193,173.165 123.408,173.000 123.593 C 172.835 123.777,172.408 124.099,172.050 124.307 C 171.692 124.516,171.400 124.757,171.400 124.843 C 171.400 124.929,171.304 125.000,171.186 125.000 C 171.068 125.000,170.846 125.113,170.693 125.250 C 170.092 125.788,169.812 126.000,169.699 126.000 C 169.635 126.000,169.357 126.225,169.082 126.500 C 168.807 126.775,168.451 127.000,168.291 127.000 C 168.131 127.000,168.000 127.090,168.000 127.200 C 168.000 127.310,167.906 127.400,167.791 127.400 C 167.676 127.400,167.340 127.625,167.043 127.900 C 166.747 128.175,166.435 128.400,166.350 128.400 C 166.266 128.400,165.914 128.670,165.569 129.000 C 165.223 129.330,164.878 129.600,164.801 129.600 C 164.725 129.600,164.401 129.826,164.081 130.101 C 163.761 130.377,163.343 130.653,163.150 130.715 C 162.958 130.776,162.800 130.911,162.800 131.013 C 162.800 131.116,162.665 131.200,162.500 131.200 C 162.335 131.200,162.200 131.281,162.200 131.379 C 162.200 131.478,161.817 131.748,161.350 131.979 C 160.883 132.210,160.581 132.400,160.680 132.400 C 160.779 132.400,160.487 132.670,160.032 133.000 C 159.576 133.330,159.133 133.600,159.046 133.600 C 158.959 133.600,158.759 133.780,158.600 134.000 C 158.441 134.220,158.238 134.400,158.147 134.400 C 158.057 134.400,157.874 134.492,157.742 134.604 C 156.550 135.610,156.242 135.825,155.851 135.927 C 155.605 135.990,155.452 136.123,155.513 136.221 C 155.574 136.320,155.483 136.400,155.312 136.400 C 155.140 136.400,155.000 136.471,155.000 136.557 C 155.000 136.643,154.714 136.883,154.365 137.089 C 153.766 137.443,153.565 137.594,152.553 138.450 C 152.325 138.643,152.062 138.800,151.968 138.800 C 151.873 138.800,151.517 139.067,151.175 139.394 C 150.833 139.721,150.384 140.042,150.177 140.107 C 149.970 140.173,149.800 140.311,149.800 140.413 C 149.800 140.516,149.665 140.600,149.500 140.600 C 149.335 140.600,149.200 140.688,149.200 140.796 C 149.200 140.904,148.976 141.049,148.701 141.118 C 148.427 141.186,148.252 141.323,148.313 141.421 C 148.374 141.520,148.324 141.600,148.203 141.600 C 148.082 141.600,147.740 141.825,147.443 142.100 C 147.147 142.375,146.811 142.600,146.696 142.600 C 146.582 142.600,146.359 142.780,146.200 143.000 C 146.041 143.220,145.797 143.400,145.656 143.400 C 145.515 143.400,145.400 143.488,145.400 143.596 C 145.400 143.704,145.176 143.849,144.901 143.918 C 144.627 143.986,144.452 144.123,144.513 144.221 C 144.574 144.320,144.483 144.400,144.312 144.400 C 144.140 144.400,144.000 144.484,144.000 144.587 C 144.000 144.689,143.843 144.824,143.650 144.886 C 143.458 144.947,142.985 145.269,142.600 145.600 C 142.215 145.931,141.743 146.253,141.550 146.314 C 141.358 146.376,141.200 146.511,141.200 146.613 C 141.200 146.716,141.106 146.800,140.991 146.800 C 140.876 146.800,140.557 147.025,140.282 147.300 C 140.007 147.575,139.695 147.800,139.589 147.800 C 139.483 147.800,139.117 148.067,138.775 148.394 C 138.433 148.721,137.984 149.042,137.777 149.107 C 137.570 149.173,137.400 149.311,137.400 149.413 C 137.400 149.516,137.304 149.600,137.186 149.600 C 137.068 149.600,136.846 149.713,136.693 149.850 C 136.054 150.423,135.808 150.600,135.653 150.600 C 135.562 150.600,135.359 150.780,135.200 151.000 C 135.041 151.220,134.801 151.400,134.665 151.400 C 134.529 151.400,134.193 151.625,133.918 151.900 C 133.643 152.175,133.324 152.400,133.209 152.400 C 133.094 152.400,133.000 152.488,133.000 152.596 C 133.000 152.704,132.776 152.849,132.501 152.918 C 132.227 152.986,132.052 153.123,132.113 153.221 C 132.174 153.320,132.083 153.400,131.912 153.400 C 131.740 153.400,131.600 153.470,131.600 153.555 C 131.600 153.640,131.285 153.879,130.900 154.086 C 130.515 154.293,130.200 154.539,130.200 154.631 C 130.200 154.724,130.104 154.800,129.986 154.800 C 129.868 154.800,129.646 154.913,129.493 155.050 C 128.831 155.644,128.605 155.800,128.408 155.800 C 128.294 155.800,128.200 155.876,128.200 155.969 C 128.200 156.061,127.885 156.307,127.500 156.514 C 127.115 156.721,126.800 156.960,126.800 157.045 C 126.800 157.130,126.711 157.200,126.602 157.200 C 126.162 157.200,123.600 159.674,123.600 160.099 C 123.600 160.264,123.510 160.400,123.400 160.400 C 123.290 160.400,123.200 160.535,123.200 160.700 C 123.200 160.865,123.110 161.000,123.000 161.000 C 122.890 161.000,122.800 161.225,122.800 161.500 C 122.800 161.775,122.890 162.000,123.000 162.000 C 123.110 162.000,123.200 162.180,123.200 162.400 C 123.200 162.622,123.333 162.800,123.500 162.800 C 123.665 162.800,123.800 162.887,123.800 162.993 C 123.800 163.099,124.250 163.246,124.800 163.319 C 125.350 163.392,125.800 163.530,125.800 163.626 C 125.800 163.722,126.475 163.800,127.300 163.800 C 128.167 163.800,128.800 163.884,128.800 164.000 C 128.800 164.131,132.400 164.200,139.200 164.200 C 148.311 164.200,149.600 164.237,149.600 164.500 C 149.600 164.665,149.510 164.800,149.400 164.800 C 149.290 164.800,149.200 165.115,149.200 165.500 C 149.200 165.885,149.110 166.200,149.000 166.200 C 148.890 166.200,148.800 166.520,148.800 166.912 C 148.800 167.303,148.720 167.574,148.623 167.514 C 148.526 167.454,148.383 168.079,148.306 168.903 C 148.229 169.726,148.084 170.400,147.983 170.400 C 147.882 170.400,147.800 170.805,147.800 171.300 C 147.800 171.795,147.710 172.200,147.600 172.200 C 147.490 172.200,147.400 172.555,147.400 172.988 C 147.400 173.422,147.302 173.837,147.181 173.912 C 147.061 173.986,146.996 174.396,147.037 174.823 C 147.077 175.251,147.041 175.600,146.955 175.600 C 146.870 175.600,146.800 176.045,146.800 176.588 C 146.800 177.132,146.710 177.632,146.600 177.700 C 146.490 177.768,146.400 178.396,146.400 179.095 C 146.400 179.822,146.308 180.397,146.186 180.438 C 146.043 180.486,145.934 182.631,145.857 186.905 C 145.737 193.633,145.918 200.074,146.221 199.887 C 146.320 199.826,146.400 200.322,146.400 200.988 C 146.400 201.655,146.481 202.200,146.581 202.200 C 146.761 202.200,146.989 203.727,146.989 204.935 C 146.989 205.284,147.082 205.627,147.195 205.697 C 147.308 205.767,147.400 206.133,147.400 206.512 C 147.400 206.890,147.490 207.200,147.600 207.200 C 147.710 207.200,147.800 207.515,147.800 207.900 C 147.800 208.285,147.884 208.600,147.986 208.600 C 148.088 208.600,148.233 209.096,148.309 209.703 C 148.385 210.309,148.526 210.854,148.623 210.914 C 148.721 210.974,148.800 211.243,148.800 211.512 C 148.800 211.780,148.890 212.000,149.000 212.000 C 149.110 212.000,149.200 212.175,149.200 212.388 C 149.200 212.602,149.285 212.829,149.388 212.893 C 149.492 212.957,149.637 213.412,149.711 213.905 C 149.785 214.397,149.925 214.800,150.023 214.800 C 150.120 214.800,150.200 214.935,150.200 215.100 C 150.200 215.265,150.290 215.400,150.400 215.400 C 150.510 215.400,150.600 215.575,150.600 215.788 C 150.600 216.002,150.680 216.226,150.777 216.286 C 150.875 216.346,151.014 216.712,151.086 217.098 C 151.159 217.484,151.304 217.800,151.409 217.800 C 151.514 217.800,151.600 217.980,151.600 218.200 C 151.600 218.420,151.690 218.600,151.800 218.600 C 151.910 218.600,152.000 218.735,152.000 218.900 C 152.000 219.240,153.280 219.293,156.150 219.069 C 157.775 218.943,158.507 218.260,157.612 217.707 C 157.508 217.643,157.363 217.188,157.289 216.695 C 157.215 216.203,157.075 215.800,156.977 215.800 C 156.880 215.800,156.800 215.575,156.800 215.300 C 156.800 215.025,156.720 214.800,156.623 214.800 C 156.525 214.800,156.389 214.507,156.320 214.150 C 156.251 213.793,156.142 213.275,156.078 213.000 C 156.015 212.725,155.917 212.163,155.860 211.750 C 155.804 211.338,155.677 211.000,155.579 211.000 C 155.481 211.000,155.400 210.735,155.400 210.412 C 155.400 210.088,155.318 209.773,155.217 209.710 C 155.116 209.648,154.971 208.922,154.893 208.096 C 154.816 207.270,154.673 206.545,154.576 206.485 C 154.479 206.425,154.400 206.027,154.400 205.600 C 154.400 205.173,154.310 204.768,154.200 204.700 C 154.090 204.632,154.000 204.105,154.000 203.528 C 154.000 202.952,153.911 202.391,153.802 202.282 C 153.693 202.173,153.544 200.490,153.471 198.542 C 153.397 196.594,153.261 195.000,153.169 195.000 C 152.948 195.000,152.948 185.056,153.169 184.919 C 153.261 184.862,153.399 183.079,153.475 180.958 C 153.553 178.782,153.697 177.071,153.806 177.033 C 153.913 176.997,154.000 176.344,154.000 175.583 C 154.000 174.794,154.086 174.200,154.200 174.200 C 154.310 174.200,154.400 173.755,154.400 173.212 C 154.400 172.668,154.478 172.175,154.574 172.116 C 154.669 172.057,154.811 171.198,154.889 170.207 C 154.966 169.216,155.113 168.354,155.215 168.291 C 155.317 168.228,155.400 167.822,155.400 167.388 C 155.400 166.955,155.490 166.600,155.600 166.600 C 155.710 166.600,155.800 166.200,155.800 165.712 C 155.800 165.223,155.894 164.766,156.008 164.695 C 156.123 164.624,156.162 164.394,156.095 164.183 C 156.028 163.972,156.060 163.800,156.166 163.800 C 156.271 163.800,156.412 163.440,156.479 163.000 C 156.546 162.560,156.654 161.840,156.721 161.400 C 156.788 160.960,156.914 160.600,157.001 160.600 C 157.089 160.600,157.223 160.060,157.300 159.400 C 157.377 158.739,157.521 158.149,157.620 158.088 C 157.719 158.027,157.800 157.712,157.800 157.388 C 157.800 157.065,157.890 156.800,158.000 156.800 C 158.110 156.800,158.200 156.665,158.200 156.500 C 158.200 156.238,157.092 156.199,149.450 156.194 C 141.616 156.188,140.742 156.156,141.100 155.886 C 141.617 155.498,142.814 154.487,143.808 153.600 C 144.239 153.215,144.956 152.585,145.400 152.200 C 145.844 151.815,146.562 151.185,146.995 150.800 C 147.427 150.415,148.060 149.875,148.400 149.600 C 148.740 149.325,149.369 148.785,149.798 148.400 C 150.226 148.015,150.955 147.385,151.417 147.000 C 151.878 146.615,152.465 146.097,152.719 145.850 C 152.974 145.603,153.223 145.400,153.274 145.400 C 153.325 145.400,153.753 145.040,154.224 144.600 C 154.696 144.160,155.204 143.800,155.353 143.800 C 155.502 143.800,155.568 143.710,155.500 143.600 C 155.432 143.490,155.476 143.400,155.597 143.400 C 155.719 143.400,156.032 143.197,156.294 142.950 C 156.556 142.703,157.147 142.185,157.608 141.800 C 158.069 141.415,158.729 140.852,159.073 140.549 C 160.050 139.691,160.172 139.600,160.344 139.600 C 160.433 139.600,160.674 139.375,160.881 139.100 C 161.087 138.825,161.384 138.600,161.540 138.600 C 161.696 138.600,161.768 138.510,161.700 138.400 C 161.632 138.290,161.676 138.200,161.797 138.200 C 161.919 138.200,162.232 137.998,162.494 137.750 C 162.756 137.503,163.348 136.985,163.810 136.600 C 164.273 136.215,164.752 135.810,164.875 135.700 C 164.999 135.590,165.460 135.232,165.900 134.905 C 166.340 134.578,166.907 134.105,167.159 133.855 C 167.412 133.605,167.764 133.400,167.942 133.400 C 168.121 133.400,168.213 133.347,168.148 133.281 C 168.082 133.216,168.360 132.878,168.764 132.531 C 169.169 132.184,169.530 131.833,169.567 131.750 C 169.603 131.667,169.720 131.600,169.826 131.600 C 169.932 131.600,170.233 131.398,170.497 131.150 C 170.760 130.903,171.255 130.475,171.597 130.200 C 171.939 129.925,172.582 129.363,173.026 128.950 C 173.469 128.537,173.966 128.200,174.128 128.200 C 174.291 128.200,174.368 128.110,174.300 128.000 C 174.232 127.890,174.281 127.800,174.409 127.800 C 174.538 127.800,174.819 127.575,175.036 127.300 C 175.252 127.025,175.563 126.800,175.726 126.800 C 175.890 126.800,175.968 126.710,175.900 126.600 C 175.832 126.490,175.875 126.400,175.995 126.400 C 176.211 126.400,176.667 126.029,177.777 124.950 C 178.089 124.647,178.404 124.400,178.478 124.400 C 178.553 124.400,178.918 124.108,179.290 123.750 C 179.663 123.392,180.345 122.785,180.807 122.400 C 181.269 122.015,181.916 121.464,182.246 121.175 C 183.275 120.274,183.377 120.200,183.603 120.200 C 183.724 120.200,183.768 120.110,183.700 120.000 C 183.632 119.890,183.653 119.800,183.746 119.800 C 183.839 119.800,184.407 119.351,185.008 118.802 C 185.608 118.253,186.441 117.511,186.858 117.152 C 187.275 116.793,187.976 116.163,188.416 115.750 C 188.856 115.338,189.257 115.000,189.308 115.000 C 189.358 115.000,189.981 114.415,190.693 113.700 C 191.404 112.985,191.938 112.400,191.879 112.400 C 191.820 112.400,191.913 112.259,192.086 112.086 C 192.794 111.377,192.386 111.084,191.050 111.341 M191.250 170.350 L 186.600 170.407 186.600 176.507 L 186.600 182.606 192.450 182.553 L 198.300 182.500 198.353 177.600 C 198.420 171.353,198.340 170.993,196.825 170.703 C 196.242 170.591,195.833 170.433,195.916 170.350 C 195.999 170.268,196.029 170.221,195.983 170.246 C 195.938 170.272,193.808 170.318,191.250 170.350 M172.800 176.500 L 172.800 182.600 178.500 182.600 L 184.200 182.600 184.200 176.500 L 184.200 170.400 178.500 170.400 L 172.800 170.400 172.800 176.500 M172.800 191.000 L 172.800 197.000 178.500 197.000 L 184.200 197.000 184.200 191.000 L 184.200 185.000 178.500 185.000 L 172.800 185.000 172.800 191.000 M186.600 191.000 L 186.600 197.000 192.500 197.000 L 198.400 197.000 198.400 191.000 L 198.400 185.000 192.500 185.000 L 186.600 185.000 186.600 191.000 M149.150 225.541 C 149.398 225.589,149.803 225.589,150.050 225.541 C 150.297 225.493,150.095 225.454,149.600 225.454 C 149.105 225.454,148.903 225.493,149.150 225.541 M244.850 227.938 C 245.043 227.988,245.357 227.988,245.550 227.938 C 245.743 227.888,245.585 227.846,245.200 227.846 C 244.815 227.846,244.657 227.888,244.850 227.938 M150.000 229.200 L 149.500 229.360 150.050 229.380 C 150.353 229.391,150.600 229.310,150.600 229.200 C 150.600 229.090,150.578 229.009,150.550 229.020 C 150.523 229.031,150.275 229.112,150.000 229.200 M151.555 244.566 L 151.500 256.731 150.924 257.487 C 149.568 259.265,147.091 259.209,145.823 257.372 C 145.160 256.412,145.297 256.390,143.207 257.795 C 141.090 259.219,141.094 259.214,141.516 260.032 C 144.281 265.377,152.535 265.256,155.285 259.829 C 156.391 257.647,156.400 257.524,156.400 244.458 L 156.400 232.400 154.005 232.400 L 151.609 232.400 151.555 244.566 M161.045 243.550 C 161.123 256.143,161.095 255.904,162.807 258.821 C 166.972 265.914,177.057 265.623,180.842 258.300 C 182.202 255.670,182.200 255.689,182.200 243.421 L 182.200 232.400 179.707 232.400 L 177.213 232.400 177.157 243.350 L 177.100 254.300 176.641 255.159 C 174.261 259.617,168.631 259.496,166.572 254.943 L 166.100 253.900 166.042 243.150 L 165.984 232.400 163.480 232.400 L 160.976 232.400 161.045 243.550 M187.000 248.000 L 187.000 263.600 193.564 263.600 C 201.590 263.600,202.632 263.372,204.726 261.161 C 208.100 257.599,208.305 250.447,205.130 247.052 L 204.231 246.092 204.663 244.896 C 205.842 241.634,205.089 237.192,202.967 234.886 C 200.859 232.596,200.056 232.400,192.764 232.400 L 187.000 232.400 187.000 248.000 M220.307 232.750 C 219.884 233.841,209.200 263.424,209.200 263.504 C 209.200 263.557,210.405 263.600,211.878 263.600 L 214.556 263.600 215.286 261.612 C 215.688 260.518,216.156 259.213,216.327 258.712 L 216.638 257.800 221.491 257.800 L 226.345 257.800 227.341 260.650 L 228.337 263.500 231.092 263.556 C 233.664 263.608,233.838 263.588,233.708 263.256 C 233.631 263.060,231.085 256.038,228.049 247.650 L 222.529 232.400 221.486 232.400 C 220.677 232.400,220.412 232.479,220.307 232.750 M229.600 238.585 L 229.600 244.600 232.558 244.600 C 235.907 244.600,236.895 244.304,237.725 243.055 C 238.606 241.729,238.502 239.446,237.514 238.415 C 237.046 237.926,237.017 237.810,237.222 237.223 C 237.529 236.343,237.343 234.687,236.866 234.047 C 235.943 232.812,235.612 232.705,232.486 232.635 L 229.600 232.570 229.600 238.585 M243.746 232.839 C 243.289 233.967,239.144 244.155,239.062 244.350 C 238.985 244.534,239.278 244.600,240.173 244.600 L 241.389 244.600 241.819 243.600 L 242.249 242.600 244.319 242.600 L 246.389 242.600 246.819 243.600 L 247.249 244.600 248.425 244.600 C 249.071 244.600,249.600 244.569,249.600 244.530 C 249.600 243.658,244.753 232.689,244.346 232.639 C 244.074 232.606,243.804 232.696,243.746 232.839 M250.204 236.950 C 250.210 242.938,250.939 244.402,254.168 244.918 C 257.969 245.526,259.389 243.388,259.396 237.050 L 259.400 232.600 258.300 232.600 L 257.200 232.600 257.200 236.885 L 257.200 241.169 256.685 241.781 C 255.587 243.086,253.668 242.978,252.805 241.562 C 252.435 240.954,252.401 240.560,252.401 236.750 L 252.400 232.600 251.300 232.600 L 250.200 232.600 250.204 236.950 M234.851 235.150 C 235.878 236.298,235.145 237.200,233.186 237.200 L 231.800 237.200 231.800 236.000 L 231.800 234.800 233.169 234.800 C 234.220 234.800,234.611 234.881,234.851 235.150 M244.880 238.784 C 245.491 240.294,245.516 240.239,244.248 240.161 L 243.252 240.100 243.770 238.761 C 244.055 238.024,244.305 237.439,244.324 237.461 C 244.344 237.482,244.594 238.078,244.880 238.784 M198.800 238.311 C 200.826 239.501,200.902 242.763,198.933 243.980 C 198.318 244.360,197.954 244.400,195.126 244.400 L 192.000 244.400 192.000 241.082 L 192.000 237.764 195.050 237.832 C 197.691 237.891,198.194 237.955,198.800 238.311 M235.709 239.891 C 237.017 241.198,235.963 242.400,233.509 242.400 L 231.800 242.400 231.800 240.900 L 231.800 239.400 233.509 239.400 C 235.057 239.400,235.264 239.446,235.709 239.891 M222.877 248.313 C 223.605 250.301,224.200 251.988,224.200 252.063 C 224.200 252.138,222.950 252.200,221.422 252.200 L 218.644 252.200 220.022 248.469 C 220.780 246.416,221.400 244.691,221.400 244.635 C 221.400 244.343,221.668 245.011,222.877 248.313 M200.260 250.270 C 202.998 251.415,203.186 256.412,200.538 257.669 C 199.962 257.942,199.154 258.000,195.920 258.000 L 192.000 258.000 192.000 254.000 L 192.000 250.000 195.806 250.000 C 198.551 250.000,199.793 250.075,200.260 250.270 " stroke="none" fill="#5c2c24" fill-rule="evenodd"></path></g></svg>