<svg version="1.2" xmlns="http://www.w3.org/2000/svg" viewBox="0 0 400 400" width="500" height="500">
	<title>logosvg-svg</title>
	<style>
		.s0 { fill: #31ab34 } 
		.s1 { fill: #5c2c24 } 
	</style>
	<g id="svgg">
		<path id="path0" fill-rule="evenodd" class="s0" d="m224.1 11.7c0.3 0.5 1.1 1.4 1.6 2 0.6 0.6 1.1 1.3 1.1 1.5 0 0.1 0.3 0.4 0.7 0.5 0.4 0.2 0.9 0.6 1 1 0.1 0.3 0.9 1.4 1.8 2.4 0.9 1 1.6 1.9 1.6 2 0 0.2 0.4 0.7 0.9 1.3 0.5 0.5 1.3 1.4 1.7 2.1 0.4 0.6 1 1.4 1.4 1.6 0.4 0.3 0.7 0.7 0.7 1 0 0.2 0.5 0.8 1 1.3 0.6 0.5 1 1.1 1 1.4 0 0.2 0.2 0.4 0.4 0.4 0.2 0 0.4 0.2 0.4 0.6 0 0.3 0.3 0.7 0.6 0.8 0.3 0.1 0.6 0.6 0.6 1 0 0.4 0.2 0.7 0.4 0.7 0.2 0 0.6 0.6 1 1.3 0.4 0.7 0.9 1.4 1.2 1.6 0.3 0.2 0.4 0.5 0.3 0.7-0.1 0.2-0.1 0.4 0.1 0.4 0.2 0 0.7 0.6 1.1 1.3 0.4 0.7 0.9 1.3 1 1.5 0.3 0.3 1.1 1.6 1.9 3.1 0.4 0.8 0.8 1.5 1 1.5 0.1 0.1 0.3 0.5 0.3 0.9 0 0.4 0.1 0.8 0.3 0.8 0.3 0 0.8 1 1 2.2 0.1 0.5 0.6 1.8 1.1 2.6 0.2 0.4 0.3 1.1 0.3 1.5 0 0.4 0.2 0.8 0.4 0.8 0.3 0 1 3.2 1.5 6.5 0.1 0.9 0.3 1.8 0.5 2 0.2 0.2 0.4 1.4 0.4 2.7 0 1.4 0.1 2.2 0.4 2 0.2-0.1 0.4 2.6 0.4 7.7 0 5.1-0.2 8-0.4 8-0.2 0-0.4 1.2-0.4 2.7 0 1.5-0.2 2.9-0.4 3-0.2 0.1-0.4 1-0.4 1.8 0 0.9-0.2 1.6-0.4 1.6-0.2 0-0.4 1.1-0.6 2.5-0.1 1.5-0.4 2.7-0.6 2.8-0.2 0.2-0.4 0.7-0.4 1.2 0 0.5-0.1 1-0.3 1.2-0.2 0.1-0.5 0.8-0.6 1.5-0.1 0.7-0.3 1.7-0.4 2.2-0.2 0.6-0.4 1.8-0.5 2.7-0.1 0.9-0.4 1.7-0.6 1.7-0.2 0-0.3 0.5-0.3 1.2 0 0.6-0.2 1.2-0.4 1.3-0.2 0.2-0.5 1.2-0.6 2.4-0.2 1.2-0.5 2.2-0.7 2.2-0.1 0-0.3 0.5-0.3 1.2 0 0.6-0.2 1.2-0.4 1.2-0.2 0-0.4 0.4-0.4 1 0 0.5-0.2 1-0.4 1-0.2 0-0.5 0.9-0.6 2.1-0.1 1.2-0.4 2.2-0.6 2.2-0.2 0-0.4 0.5-0.4 1 0 0.5-0.1 1-0.4 1-0.2 0-0.4 0.2-0.4 0.5 0 2.5-1.8 3.3-2.8 1.2-0.4-0.9-2.3-4.9-4.3-9-1.9-4-3.5-7.5-3.5-7.5 0-0.1-0.7-1.6-1.4-3.3-4.2-8.9-7.5-18.6-12.2-35.3-0.8-2.7-1.6-5.3-1.8-5.6-0.2-0.4-0.4-1-0.4-1.4-0.1-0.4-0.2-0.5-0.3-0.3-0.2 0.6 2.8 15.4 4.5 21.9 1.9 7.4 5 16.2 7.8 22.4 0.5 1.1 1.5 3.1 2.1 4.5 0.7 1.4 2.3 4.8 3.6 7.5 4.3 8.6 5.8 13.1 4.3 13.1-0.8 0-2.5-0.8-1.7-0.8 0.2 0 0-0.3-0.4-0.7-0.8-0.7-2.1-3.2-2.1-4 0-0.2-0.2-0.4-0.4-0.4-0.3 0-0.4-0.4-0.4-0.8 0-0.5-0.2-0.8-0.4-0.8-0.2 0-0.5-0.4-0.6-0.9-0.2-0.5-0.4-1-0.4-1.1 0-0.1-0.2-0.6-0.4-1-0.9-2.3-1.2-3-1.4-3-0.2 0-0.4-0.8-0.6-1.7-0.1-1-0.4-1.9-0.6-2-0.2-0.2-0.4-0.6-0.4-1 0-0.5-0.2-0.8-0.4-0.8-0.2 0-0.4-0.4-0.4-1 0-0.5-0.1-1-0.3-1-0.2 0-0.5-0.8-0.6-1.7-0.2-1-0.5-1.9-0.7-2-0.2-0.2-0.3-0.6-0.3-1 0-0.5-0.2-0.8-0.4-0.8-0.2 0-0.4-0.4-0.4-1 0-0.5-0.2-1-0.4-1.2-0.2-0.1-0.5-1.1-0.6-2.2-0.2-1-0.4-1.9-0.6-1.9-0.2 0-0.4-0.5-0.4-1 0-0.6-0.2-1-0.4-1-0.2 0-0.4-0.4-0.4-0.9 0-0.5-0.1-1.1-0.3-1.3-0.1-0.1-0.3-0.4-0.3-0.5-0.3-1.4-0.7-2.9-1-3.1-0.2-0.1-0.4-0.5-0.4-1 0-0.4-0.1-0.7-0.3-0.7-0.2 0-0.5-0.8-0.6-1.6-0.1-0.9-0.4-2-0.7-2.4-0.2-0.4-0.5-1.1-0.7-1.6-0.3-0.4-0.4-1-0.4-1.3 0-0.4-0.2-0.6-0.4-0.6-0.2 0-0.4-0.8-0.6-1.8-0.1-1-0.4-1.8-0.6-1.8-0.1 0-0.4-0.5-0.7-1.1-0.3-0.9-0.4-0.2-0.5 3.7 0 2.9 0.2 5 0.4 5.1 0.2 0.1 0.4 1.1 0.4 2.2 0 1.1 0.1 2 0.3 2 0.2 0 0.5 1.2 0.6 2.8 0.2 1.6 0.5 3.1 0.7 3.3 0.2 0.2 0.4 0.8 0.4 1.4 0 0.6 0.1 1.2 0.4 1.4 0.2 0.1 0.4 0.7 0.4 1.3 0 0.7 0.1 1.3 0.3 1.4 0.2 0.1 0.5 1.2 0.6 2.4 0.2 1.2 0.5 2.2 0.7 2.2 0.2 0 0.3 0.5 0.3 1.2 0 0.6 0.2 1.1 0.4 1.1 0.2 0 0.5 0.9 0.6 2 0.2 1.1 0.4 2 0.6 2 0.2 0 0.6 0.8 0.8 1.8 0.3 1 0.7 1.8 0.8 1.8 0.2 0 0.4 0.7 0.5 1.5 0.2 0.9 0.5 1.6 0.7 1.6 0.2 0 0.4 0.4 0.4 0.8 0 0.5 0.1 0.8 0.3 0.8 0.1 0 0.5 0.6 0.8 1.3 1.1 2.8 1.8 4.2 2.1 4.2 0.1 0 0.4 0.6 0.5 1.3 0.2 0.6 0.6 1.4 1 1.6 0.5 0.3 0.8 0.7 0.8 1 0 1.1 2.4 4.1 3.2 4.1 0.2 0 0.4 0.3 0.4 0.7 0 0.8-0.3 0.8-3.2 0.8-1.8 0-3.2-0.1-3.2-0.4 0-0.2-0.5-0.4-1.1-0.4-0.7 0-1.3-0.1-1.4-0.3-0.1-0.2-0.9-0.5-1.8-0.6-0.9-0.2-1.6-0.5-1.6-0.7 0-0.2-0.3-0.3-0.8-0.3-0.4 0-0.8-0.2-0.8-0.3 0-0.2-0.8-0.7-1.7-1.1-1-0.5-1.8-0.9-1.8-1.1 0-0.2-0.3-0.3-0.6-0.3-0.3 0-0.6-0.2-0.6-0.4 0-0.2-0.3-0.4-0.7-0.6-0.4-0.1-1.4-0.8-2.2-1.6-0.9-0.7-1.8-1.4-2.2-1.4-0.3 0-0.4-0.1-0.3-0.2 0.1-0.2-0.1-0.6-0.6-1-1.5-1.3-5.2-5-6.4-6.5-0.7-0.8-1.7-1.9-2.3-2.6-0.6-0.6-1.1-1.3-1.1-1.5 0-0.2-0.2-0.4-0.5-0.4-0.2 0-0.3-0.1-0.2-0.3 0.2-0.1-0.1-0.6-0.5-1-0.4-0.5-0.8-1.1-0.8-1.4 0-0.2-0.1-0.5-0.4-0.5-0.2 0-0.4-0.2-0.4-0.6 0-0.3-0.1-0.6-0.3-0.6-0.1 0-0.6-0.9-1-1.9-0.5-1.1-0.9-2-1.1-2-0.2 0-0.3-0.4-0.3-0.8 0-0.4-0.2-0.8-0.4-0.8-0.2 0-0.5-0.9-0.6-2-0.2-1.1-0.4-2-0.6-2-0.2 0-0.4-0.5-0.4-1.1 0-0.7-0.1-1.2-0.3-1.2-0.4 0-1.2-4.9-1.5-9-0.1-1.4-0.4-2.5-0.6-2.5-0.2 0-0.4-4.7-0.4-11.3 0-7.2 0.2-11.2 0.4-11.2 0.3 0 0.4-1.2 0.4-2.8 0-1.5 0.2-2.8 0.4-2.8 0.2 0 0.4-1.5 0.6-3.3 0.2-1.9 0.4-3.4 0.6-3.4 0.2 0 0.4-0.7 0.5-1.5 0.5-3.4 1.3-6.4 1.6-6.4 0.1 0 0.3-0.4 0.3-1 0-0.5 0.2-1.1 0.4-1.2 0.2-0.1 0.4-0.6 0.4-1 0-0.4 0.1-0.8 0.3-0.8 0.2 0 0.5-0.9 0.7-1.9 0.1-1.1 0.4-2 0.6-2 0.2 0 0.3-0.4 0.3-0.8 0-0.5 0.2-0.8 0.3-0.8 0.2 0 0.7-0.9 1.1-2 0.4-1.1 0.9-2 1.1-2 0.2 0 0.3-0.2 0.3-0.6 0-0.3 0.2-0.5 0.4-0.5 0.2 0 0.4-0.4 0.4-0.8 0-0.5 0.2-0.8 0.4-0.8 0.2 0 0.3-0.2 0.2-0.4-0.1-0.1 0.2-0.7 0.6-1.1 0.4-0.5 0.8-1.1 0.8-1.3 0-0.2 0.3-0.7 0.7-1.1 0.3-0.5 1.1-1.5 1.6-2.2 1.2-1.7 7.4-8.2 7.9-8.2 0.1 0 0.6-0.3 1.1-0.7 0.4-0.3 1.4-1 2.2-1.4 0.8-0.4 1.5-0.9 1.5-1.1 0-0.2 0.3-0.3 0.8-0.3 0.4 0 0.8-0.2 0.8-0.4 0-0.2 0.3-0.4 0.6-0.5 1.9-0.5 3.2-0.3 3.8 0.6zm86.1 57.6c0.1 0.1 2.3 0.4 4.9 0.6 2.5 0.1 4.7 0.4 4.8 0.6 0 0.2 0.8 0.4 1.6 0.4 0.9 0 1.6 0.2 1.6 0.4 0 0.1 0.6 0.4 1.3 0.5 3.3 0.6 5.8 1.3 5.8 1.6 0 0.1 0.4 0.3 1 0.3 0.5 0 1 0.1 1 0.3 0 0.2 0.8 0.5 1.7 0.7 1 0.1 1.7 0.4 1.6 0.6-0.1 0.2 0.2 0.3 0.6 0.3 0.4 0 0.8 0.2 0.8 0.4 0 0.3 0.4 0.4 0.8 0.4 0.4 0 0.8 0.2 0.8 0.4 0 0.2 0.6 0.5 1.4 0.7 0.7 0.1 1.4 0.4 1.4 0.6 0 0.2 0.2 0.3 0.6 0.3 0.3 0 0.5 0.2 0.5 0.4 0 0.2 0.4 0.4 0.7 0.6 1.3 0.5 2.5 1.2 2.5 1.5 0 0.1 0.2 0.3 0.4 0.3 0.2 0 0.9 0.4 1.5 1 0.6 0.5 1.2 1 1.4 1 0.7 0 7.4 6.6 7.4 7.3 0 0.6-5 5.7-5.6 5.7-0.4 0-1.2 0.6-4.8 4.1-1.5 1.4-2.7 2.7-2.7 2.8 0 0.2-0.4 0.7-0.8 1.1-0.5 0.4-0.8 0.7-0.6 0.7 0.2 0 0 0.3-1.8 2.5-0.4 0.4-0.7 1-0.7 1.3 0 0.3-0.2 0.6-0.4 0.6-0.2 0-0.4 0.1-0.4 0.3 0 0.4-1.5 2.9-2.4 3.9-0.2 0.3-0.4 0.7-0.4 0.9 0 0.2-0.1 0.4-0.4 0.4-0.2 0-0.4 0.2-0.4 0.5 0 0.3-0.2 0.8-0.6 1.1-0.3 0.3-0.5 0.8-0.5 1.2 0 0.4-0.2 0.8-0.4 0.8-0.3 0-0.4 0.2-0.4 0.6 0 0.3-0.2 0.5-0.4 0.5-0.2 0-0.5 0.5-0.7 1-0.1 0.6-0.4 1-0.6 1-0.1 0-0.3 0.4-0.3 0.8 0 0.5-0.2 0.8-0.4 0.8-0.2 0-0.4 0.3-0.4 0.6 0 0.3-0.2 0.6-0.4 0.7-0.2 0-0.5 0.5-0.6 1.1-0.1 0.5-0.4 1-0.6 1.1-0.2 0.1-0.4 0.4-0.4 0.7 0 0.3-0.1 0.6-0.4 0.6-0.2 0-0.4 0.1-0.4 0.3 0 0.7-1.3 3.6-1.6 3.6-0.2 0-0.3 0.4-0.3 0.8 0 0.4-0.2 0.8-0.4 0.8-0.2 0-0.5 0.4-0.7 1-0.1 0.5-0.4 1-0.6 1-0.2 0-0.3 0.2-0.3 0.6 0 0.3-0.2 0.6-0.4 0.6-0.2 0-0.4 0.3-0.4 0.7 0 0.5-0.2 0.8-0.4 0.8-0.1 0-0.4 0.5-0.6 1-0.1 0.6-0.8 2-1.6 3.2-0.7 1.2-1.3 2.4-1.3 2.7 0 0.4-0.2 0.7-0.4 0.7-0.3 0-0.4 0.2-0.4 0.5 0 0.4-0.2 0.6-0.4 0.6-0.2 0-0.4 0.4-0.4 0.8 0 0.5-0.2 0.8-0.4 0.8-0.3 0-0.4 0.2-0.2 0.4 0.1 0.2 0 0.4-0.2 0.4-0.2 0-0.4 0.3-0.4 0.6 0 0.3-0.2 0.6-0.4 0.6-0.2 0-0.4 0.3-0.4 0.6 0 0.3-0.2 0.6-0.3 0.6-0.2 0-0.7 0.8-1.1 1.8-0.4 0.9-0.8 1.7-1 1.7-0.1 0-0.5 0.7-0.9 1.4-0.4 0.8-0.9 1.4-1.1 1.4-0.1 0-0.3 0.3-0.4 0.5-0.3 1.2-6 7.4-9.4 10.2-0.9 0.8-2.1 1.8-2.6 2.3-0.5 0.5-1.1 0.9-1.3 0.9-0.1 0-0.7 0.4-1.3 0.9-0.6 0.6-1.3 1-1.5 1-0.2 0-0.4 0.2-0.4 0.4 0 0.2-0.5 0.5-1 0.7-0.6 0.1-1 0.4-1 0.6 0 0.2-0.3 0.3-0.6 0.3-0.3 0-0.6 0.2-0.6 0.4 0 0.2-0.2 0.4-0.6 0.4-0.3 0-0.6 0.2-0.6 0.4 0 0.2-0.5 0.4-1.1 0.6-0.7 0.1-1.2 0.4-1.2 0.6 0 0.2-0.3 0.4-0.6 0.4-0.4 0-0.6 0.2-0.6 0.4 0 0.2-0.4 0.4-0.8 0.4-0.4 0-0.8 0.1-0.8 0.3 0 0.3-0.6 0.5-1.4 0.7-0.7 0.1-1.5 0.4-1.6 0.6-0.1 0.2-0.5 0.3-1 0.3-0.4 0-0.7 0.2-0.7 0.4 0 0.2-2 0.8-5.3 1.5-1 0.2-1.5 0.9-0.7 0.9 0.3 0 0.4 1.5 0.4 3.8 0 2.2 0.2 3.7 0.4 3.7 0.3 0 0.4 2.1 0.4 5.6 0 3.4 0.2 5.5 0.4 5.5 0.3 0 0.4 3.9 0.4 10.9 0 7-0.1 10.9-0.4 10.9-0.2 0-0.4 1.6-0.4 4.1 0 2.5-0.1 4.2-0.4 4.2-0.2 0-0.4 1.1-0.4 2.5 0 1.4-0.1 2.7-0.3 2.8-0.2 0.1-0.5 1.7-0.6 3.6-0.2 1.8-0.5 3.3-0.7 3.3-0.2 0-0.3 0.8-0.3 1.8 0 1-0.2 1.8-0.4 1.8-0.2 0-0.4 0.6-0.4 1.4 0 0.7-0.2 1.4-0.4 1.4-0.2 0-0.5 0.9-0.6 2-0.2 1.1-0.5 2.4-0.7 2.8-0.1 0.4-0.5 1-0.7 1.5-0.2 0.4-0.5 1.5-0.6 2.3-0.2 0.9-0.4 1.6-0.6 1.6-0.2 0-0.4 0.5-0.4 1 0 0.6-0.1 1-0.3 1-0.3 0-1.1 1.7-1.4 3.4-0.2 0.6-0.4 1.2-0.6 1.4-0.4 0.3-2.4 4.4-2.4 5 0 0.2-0.1 0.5-0.3 0.6-0.4 0.1-2.5 4.3-2.5 4.9 0 0.3-0.1 0.5-0.3 0.6-0.5 0.2-2.4 3.4-2.4 4 0 0.3-0.4 0.8-0.8 1.1-0.5 0.3-0.8 0.8-0.8 1 0 0.3-0.2 0.6-0.4 0.6-0.2 0-0.3 0.2-0.2 0.5 0.1 0.3-0.1 0.8-0.5 1.1-0.4 0.3-1.2 1.4-1.8 2.5-0.6 1-1.4 2.1-1.7 2.5-0.3 0.3-0.7 0.9-1 1.3-0.5 1-1.5 2.2-2.4 3.1-0.4 0.3-0.7 0.8-0.7 1.1 0 0.2-0.6 1-1.3 1.7l-1.2 1.2h10.7c6.9 0 10.7 0.1 10.7 0.4 0 0.2 1.9 0.4 4.8 0.4 2.6 0 4.8 0.1 4.9 0.3 0.2 0.3 10.1 1 12.5 0.9 0.4 0 0.8 0.2 1 0.4 0.1 0.2 1.3 0.4 2.7 0.4 1.4 0 2.6 0.1 2.8 0.3 0.1 0.3 1.3 0.4 2.5 0.4 1.3 0 2.5 0.2 2.6 0.4 0.1 0.2 2.1 0.5 4.3 0.6 2.3 0.2 4.3 0.5 4.4 0.7 0.1 0.2 1.1 0.3 2.2 0.3 1.1 0 1.9 0.2 1.9 0.4 0 0.2 0.8 0.4 1.8 0.4 1 0 1.8 0.2 2 0.4 0.1 0.2 1.6 0.4 3.3 0.6 1.8 0.2 3.3 0.4 3.4 0.6 0.1 0.2 0.9 0.4 1.8 0.4 0.8 0 1.6 0.2 1.8 0.4 0.1 0.2 0.9 0.4 1.7 0.4 0.9 0 1.7 0.1 1.8 0.3 0.1 0.2 1.4 0.5 2.8 0.7 1.4 0.1 2.5 0.4 2.5 0.6 0 0.2 0.7 0.4 1.6 0.4 0.9 0 1.6 0.1 1.6 0.3 0 0.2 1.1 0.5 2.6 0.6 1.4 0.2 2.5 0.5 2.5 0.7 0 0.2 0.6 0.3 1.4 0.3 0.8 0 1.4 0.2 1.4 0.4 0 0.2 0.5 0.4 1.2 0.4 0.6 0 1.2 0.2 1.3 0.4 0.2 0.2 1.1 0.5 2.2 0.6 1.1 0.2 2.1 0.4 2.2 0.6 0.1 0.2 0.8 0.4 1.4 0.4 0.6 0 1.2 0.2 1.2 0.4 0 0.1 0.5 0.4 1.1 0.5 0.6 0.2 2.1 0.5 3.3 0.8 1.3 0.2 2.3 0.6 2.3 0.8 0 0.1 0.4 0.3 1 0.3 0.5 0 1 0.1 1 0.3 0 0.2 0.5 0.5 1.2 0.7 0.7 0.1 1.4 0.3 1.5 0.3 0.1 0.1 0.7 0.2 1.2 0.4 1.1 0.3 2.6 0.9 3.6 1.5 0.4 0.2 1.1 0.3 1.5 0.3q0.8 0 0.8 0.8c0 0.9-5.8 0.8-6.9 0-0.2-0.2-2.4-0.4-4.8-0.6-2.5-0.1-4.5-0.4-4.5-0.6 0-0.2-1-0.4-2.3-0.4-1.3 0-2.5-0.1-2.6-0.4-0.1-0.2-1.4-0.3-2.8-0.3-1.3 0-2.6-0.2-2.7-0.4-0.1-0.2-2.4-0.5-5.2-0.6-2.7-0.2-5-0.5-5.1-0.7-0.1-0.2-1.4-0.3-2.8-0.3-1.3 0-2.6-0.2-2.7-0.4-0.1-0.1-1.8-0.4-3.9-0.6-2-0.2-4.3-0.4-5.2-0.4-0.9-0.1-3.3-0.3-5.4-0.4-2.1-0.2-3.9-0.4-3.9-0.6 0-0.2-1.6-0.4-3.5-0.4-2 0-3.6-0.2-3.8-0.3-0.1-0.3-13.7-1.1-18.6-1.1-0.7 0-1.3-0.1-1.3-0.3 0-0.1-12.5-0.3-27.7-0.3-15.2 0-27.6 0.2-27.6 0.3 0 0.2-0.7 0.3-1.5 0.3-7 0.1-21.4 0.8-21.4 1.1 0 0.1-0.4 0.3-0.8 0.3-0.6 0-0.8-0.2-0.6-0.6 0.1-0.4 0.2-0.8 0.2-1 0-0.2 0.3-0.4 0.6-0.4 0.3 0 0.6-0.2 0.6-0.4 0-0.2 0.3-0.4 0.6-0.4 0.3 0 0.6-0.1 0.6-0.3 0-0.2 0.4-0.5 0.9-0.7 0.5-0.1 1.1-0.6 1.5-1 0.4-0.4 0.8-0.7 1-0.7 0.2 0 0.8-0.3 1.2-0.7 2.2-1.8 2.5-2.1 2.8-2.1 0.2 0 0.7-0.3 1.2-0.7 2.1-1.8 2.5-2.1 2.7-2.1 0.2 0 0.8-0.4 1.4-1 0.6-0.5 1.2-0.9 1.3-0.9 0.3 0 2.8-1.9 3.7-2.7 0.3-0.3 0.6-0.5 0.8-0.5 0.2 0 0.6-0.3 1.1-0.7 0.4-0.4 1.4-1.2 2.3-1.9 0.9-0.6 2-1.5 2.4-2 0.5-0.4 1.7-1.4 2.6-2.1 2.3-2.1 10.7-10.4 11.5-11.6 0.4-0.6 1.4-1.7 2.1-2.6 2-2.1 2.2-2.5 3.1-4.1 0.4-0.8 0.9-1.5 1.1-1.5 0.2 0 0.3-0.3 0.3-0.6 0-0.3 0.1-0.6 0.3-0.6 0.2 0 0.7-0.7 1.1-1.6 0.4-0.8 0.9-1.6 1.1-1.6 0.1 0 0.3-0.3 0.3-0.8 0-0.4 0.1-0.7 0.3-0.7 0.2 0 0.5-0.4 0.7-0.9 0.4-1.6 1.1-3.1 1.4-3.1 0.2 0 0.3-0.4 0.3-0.8 0-0.4 0.2-0.8 0.4-0.8 0.2 0 0.5-0.6 0.6-1.5 0.2-0.8 0.4-1.5 0.6-1.6 0.3-0.3 1.6-4.1 1.6-4.9 0-0.4 0.2-0.7 0.4-0.7 0.2 0 0.4-0.4 0.4-0.9 0-0.6 0.1-1.1 0.4-1.3 0.2-0.1 0.4-0.7 0.4-1.3 0-0.6 0.1-1.2 0.3-1.5 0.3-0.2 0.5-1.6 0.7-3.2 0.1-1.6 0.4-2.9 0.6-2.9 0.3 0 0.4-0.7 0.2-1.7-0.1-1 0-1.7 0.2-1.6 0.4 0.3 0.9-1.6 0.5-2.2-0.1-0.2-0.1-0.6 0.2-0.9 0.2-0.3 0.4-1.3 0.5-2.3 0-0.9 0.1-1.9 0.2-2.1 0.1-0.1 0.3-1.1 0.3-2.1 0.1-1.1 0.4-3.6 0.8-5.7 1.6-10.3 1.6-26.6 0-44.6-0.7-8.7-1-13.2-1-19.1 0-6.8 0.6-13.6 1.2-14.3 0.2-0.2 0.4-0.9 0.4-1.5 0-0.6 0.4-1.8 0.8-2.7 0.5-0.9 0.8-1.9 0.6-2.2-0.1-0.3 0-0.6 0.4-0.6 0.3 0 0.6-0.2 0.6-0.6 0-0.3 0.1-0.6 0.4-0.6 0.2 0 0.4-0.3 0.4-0.8 0-0.4 0.1-0.7 0.4-0.7 0.2 0 0.3-0.2 0.1-0.4-0.1-0.3 0-0.4 0.2-0.4 0.2 0 0.4-0.3 0.4-0.6 0-0.4 0.2-0.6 0.4-0.6 0.2 0 0.4-0.3 0.4-0.6 0-0.3 0.2-0.6 0.3-0.6 0.2 0 0.7-0.6 1.1-1.4 0.4-0.8 0.8-1.4 1-1.4 0.1 0 0.7-1 1.4-2.3 0.6-1.2 1.3-2.3 1.5-2.4 0.1 0 0.3-0.4 0.3-0.8 0-0.5 0.2-0.8 0.4-0.8 0.3 0 0.4-0.1 0.2-0.3-0.1-0.1-0.1-0.4 0.1-0.7 0.8-1.1 0.8-2.3-0.1-2-0.5 0.1-1 0.2-1.3 0.2-0.2 0-0.6 0.4-0.9 0.9-0.4 0.9-0.4 0.9-0.2-0.1 0.1-0.5 2-3.5 4.1-6.7 5.9-8.9 5.4-8.1 4.5-7.6-3.6 1.9-14.5 15.2-18 21.9-1.1 2-2.2 4-2.5 4.4-0.4 0.3-0.5 0.8-0.4 1 0.1 0.2 0 0.6-0.3 0.8-0.3 0.2-0.7 1-1 1.8-0.3 0.8-0.7 1.4-0.9 1.4-0.2 0-0.3 0.4-0.3 0.8 0 0.4-0.2 0.9-0.4 1-0.2 0.1-0.5 0.9-0.6 1.8-0.2 0.9-0.4 1.6-0.6 1.6-0.2 0-0.4 0.4-0.4 1 0 0.5-0.2 0.9-0.4 0.9-0.1 0-0.4 0.5-0.5 1.1-0.4 2.1-0.5 2.5-0.8 2.8-0.2 0.1-0.3 0.8-0.3 1.5 0 0.8-0.2 1.4-0.4 1.4-0.2 0-0.4 0.6-0.4 1.5 0 0.8-0.1 1.7-0.4 1.9-0.2 0.2-0.5 2-0.6 4-0.4 5.2-0.8 4.8-4.7-4.8-1.8-4.6-3.5-8.7-3.7-9.2-0.2-0.4-0.6-1.5-0.9-2.3-0.2-0.9-0.6-1.9-0.8-2.3-0.5-1.1-0.2-22.3 0.4-22.9 0.3-0.3 0.5-1.2 0.5-2 0-0.8 0.1-1.5 0.3-1.5 0.2 0 0.5-0.7 0.6-1.5 0.4-3 1.2-6 1.5-6 0.2 0 0.3-0.6 0.3-1.4 0-0.8 0.2-1.4 0.4-1.4 0.2 0 0.4-0.4 0.4-1 0-0.5 0.2-1 0.4-1.1 0.2-0.2 0.2-0.6 0.1-1-0.1-0.4 0-0.9 0.3-1 0.2-0.2 0.4-0.7 0.4-1.3 0-0.5 0.2-0.9 0.4-0.9 0.2 0 0.4-0.5 0.4-1 0-0.5 0.2-1 0.4-1 0.2 0 0.4-0.9 0.6-2 0.1-1.1 0.4-1.9 0.6-1.9 0.2 0 0.4-0.3 0.4-0.7 0-0.3 0.3-0.9 0.7-1.3 0.4-0.3 0.9-1 1-1.5 0.2-0.5 0.5-0.9 0.7-0.9 0.2 0 0.3-0.2 0.3-0.4 0-0.5 0.7-1.2 4.1-4.7 1.3-1.3 2.5-2.4 2.7-2.4 0.2 0 0.3-0.2 0.1-0.4-0.1-0.2 0-0.4 0.2-0.4 0.4 0 2.9-1.7 3.6-2.4 0.1-0.1 0.9-0.5 1.7-0.9 0.8-0.4 1.5-0.9 1.5-1.1 0-0.2 0.3-0.4 0.7-0.4 0.5 0 0.8-0.1 0.8-0.3 0-0.2 0.7-0.5 1.4-0.6 0.8-0.2 1.4-0.4 1.4-0.7 0-0.2 0.4-0.3 1-0.3 0.5 0 1-0.2 1-0.4 0-0.2 0.3-0.4 0.7-0.4 0.7 0 4.1-1.1 5.3-1.6 0.4-0.2 1.2-0.4 1.8-0.4 0.7 0 1.2-0.2 1.3-0.4 0.1-0.2 2.1-0.5 4.4-0.6 2.3-0.2 4.4-0.5 4.5-0.6 0.2-0.5 12.7-0.5 12.9 0zm-118 62.5c2.2 0 3.8 0.2 3.8 0.4 0 0.2 1.1 0.4 2.5 0.4 1.4 0 2.6 0.2 2.8 0.3 0.1 0.2 1.3 0.5 2.7 0.7 1.5 0.1 2.6 0.4 2.6 0.6 0 0.2 0.5 0.4 1 0.4 0.6 0 1 0.2 1 0.4 0 0.2 0.3 0.4 0.7 0.4 0.5 0 1.3 0.2 1.9 0.6 0.6 0.3 1.5 0.6 1.8 0.6 0.4 0 0.7 0.1 0.7 0.4 0 0.2 0.3 0.3 0.6 0.3 0.3 0 0.6 0.2 0.7 0.3 0.2 0.5 2.5 1.7 3.3 1.7 0.3 0 0.5 0.2 0.4 0.4-0.2 0.2 0 0.4 0.2 0.4 0.3 0 1.1 0.5 1.7 1 0.6 0.5 1.3 1 1.5 1 0.2 0 0.8 0.4 1.3 1 0.6 0.5 1.3 1 1.6 1 0.3 0 0.5 0.1 0.4 0.3-0.1 0.1 0.4 0.7 1 1.3 0.7 0.5 2.2 2 3.4 3.3 3.3 3.4 3.7 3.8 3.4 3.8-0.1 0 0.3 0.5 1 1.2 0.7 0.6 1.3 1.5 1.4 1.9 0.2 0.5 0.4 0.8 0.6 0.8 0.2 0 0.9 0.9 1.5 2 0.5 1.1 1.2 2 1.3 2 0.2 0 0.4 0.4 0.6 1 0.1 0.5 0.4 1 0.6 1 0.2 0 0.4 0.3 0.4 0.7 0 0.5 0.2 0.8 0.4 0.8 0.2 0 0.4 0.3 0.4 0.6 0 0.4 0.1 0.6 0.4 0.6 0.2 0 0.4 0.3 0.4 0.7 0 0.4 0.2 1.2 0.6 1.8 0.3 0.7 0.5 1.4 0.5 1.7 0 0.3 0.2 0.6 0.4 0.6 0.3 0 0.4 0.3 0.4 0.8 0 0.4 0.2 0.8 0.4 0.8 0.2 0 0.5 0.7 0.7 1.5 0.1 0.9 0.4 1.6 0.6 1.6 0.2 0 0.3 0.6 0.3 1.2 0 0.7 0.2 1.2 0.4 1.2 0.2 0 0.4 0.4 0.4 1 0 0.5 0.2 1 0.4 1 0.2 0 0.5 1 0.6 2.3 0.2 1.3 0.4 2.4 0.6 2.4 0.2 0 0.4 0.6 0.4 1.4 0 0.8 0.1 1.4 0.4 1.4 0.2 0 0.4 0.5 0.4 1.2 0 1.6-0.8 1.5-2.4-0.3-13.3-13.8-32.2-22.7-53.1-24.8-6.9-0.7-7.2-0.4-1.2 1.2 2.8 0.8 5.7 1.5 6.3 1.7 15.9 4.3 37.4 17 43.8 25.9l0.8 1.2-1.4-1.2c-0.8-0.6-2.1-1.8-3.1-2.5-0.9-0.8-2.4-2.1-3.3-2.9-0.9-0.8-1.8-1.5-2-1.5-0.1 0-0.6-0.3-1.1-0.7-0.4-0.4-1.4-1.1-2.2-1.5-0.8-0.4-1.8-1.1-2.3-1.5-0.4-0.4-1.2-0.8-1.8-0.9-0.6-0.1-1-0.4-0.9-0.6 0.1-0.2-0.2-0.3-0.6-0.3-0.4 0-0.8-0.2-0.8-0.4 0-0.2-0.3-0.4-0.6-0.4-0.3 0-0.6-0.2-0.6-0.4 0-0.2-0.7-0.5-1.6-0.7-0.8-0.1-1.4-0.4-1.3-0.6 0.1-0.1-0.2-0.3-0.6-0.3-0.5 0-0.8-0.2-0.8-0.4 0-0.2-0.5-0.4-1-0.4-0.5 0-1.1-0.2-1.2-0.4-0.1-0.2-1-0.5-2-0.6-1-0.1-1.8-0.4-1.8-0.6 0-0.2-0.5-0.4-1.1-0.4-0.7 0-1.2-0.1-1.2-0.4 0-0.2-0.6-0.4-1.3-0.4-0.8 0-1.6-0.2-1.8-0.4-0.4-0.4-3.3-0.5-10.7-0.6-5.5 0-9.5 0-8.8 0.1 0.7 0.1 1.2 0.4 1.2 0.6 0 0.2 0.5 0.3 1 0.3 0.6 0 1 0.2 1 0.4 0 0.3 0.5 0.4 1 0.4 0.5 0 1.1 0.2 1.2 0.4 0.1 0.2 1 0.5 2 0.6 0.9 0.2 1.7 0.5 1.7 0.7 0 0.2 0.5 0.3 1 0.3 0.6 0 1 0.2 1 0.4 0 0.2 0.4 0.4 0.8 0.4 0.4 0 0.9 0.2 1 0.4 0.1 0.2 1 0.5 2 0.6 0.9 0.2 1.6 0.4 1.5 0.6-0.1 0.2 0.3 0.4 0.8 0.4 0.6 0 1 0.2 1 0.4 0 0.2 0.3 0.4 0.6 0.4 0.3 0 1 0.2 1.7 0.6 0.6 0.3 1.4 0.6 1.8 0.6 0.4 0 0.7 0.1 0.7 0.4 0 0.2 0.3 0.3 0.8 0.3 0.4 0 0.7 0.2 0.7 0.4 0 0.2 0.7 0.5 1.4 0.6 0.8 0.2 1.4 0.4 1.4 0.6 0 0.3 0.4 0.4 0.8 0.4 0.4 0 0.8 0.2 0.8 0.4 0 0.2 0.3 0.4 0.6 0.4 0.3 0 0.6 0.2 0.6 0.4 0 0.2 0.6 0.5 1.4 0.6 0.7 0.2 1.3 0.4 1.3 0.6 0 0.2 0.3 0.4 0.6 0.4 0.4 0 0.6 0.1 0.6 0.3 0 0.2 0.8 0.6 1.7 1.1 0.9 0.4 1.8 0.8 1.9 1 0.4 0.5 3.1 2.3 3.3 2.3 0.2 0 0.7 0.5 1.2 1 0.6 0.6 1.2 1 1.4 1 0.9 0 9.9 9.1 9.9 9.9 0 0.2 0.1 0.4 0.3 0.4 0.1 0 0.6 0.6 1 1.4 0.4 0.7 0.9 1.4 1.1 1.4 0.2 0 0.3 0.3 0.3 0.8 0 0.4 0.2 0.8 0.4 0.8 0.2 0 0.5 0.6 0.6 1.3 0.2 0.8 0.5 1.4 0.7 1.4 0.1 0 0.3 0.2 0.3 0.4 0 0.3 0.3 1.2 0.8 2 0.4 0.9 0.9 2.6 1 3.8 0.1 1.2 0.4 2.1 0.6 2.1 0.2 0 0.4 0.6 0.4 1.4 0 0.8 0.1 1.4 0.3 1.4 0.9 0 1.3 13.6 0.7 20.3-0.2 1.9-0.5 3.4-0.7 3.4-0.2 0-0.3 0.7-0.3 1.6 0 0.8-0.2 1.6-0.4 1.8-0.2 0.1-0.5 1.3-0.7 2.6-0.1 1.3-0.4 2.3-0.6 2.3-0.2 0-0.3 0.5-0.3 1 0 0.6-0.2 1-0.4 1-0.2 0-0.4 0.5-0.4 1 0 0.5-0.2 1-0.3 1-0.2 0-0.5 0.8-0.7 1.8-0.1 0.9-0.4 1.7-0.6 1.7-0.2 0-0.4 0.5-0.4 1 0 0.6-0.1 1-0.4 1-0.2 0-0.4 0.4-0.4 0.8 0 0.4-0.1 0.8-0.3 0.8-0.2 0-0.5 0.6-0.7 1.4-0.1 0.7-0.4 1.4-0.6 1.4-0.2 0-0.3 0.4-0.3 0.9 0 0.5-0.3 1.1-0.6 1.2-0.3 0.1-0.8 0.8-1.1 1.6-0.2 0.8-0.6 1.4-0.8 1.4-0.2 0-0.3 0.4-0.3 0.8 0 0.4-0.1 0.8-0.3 0.8-0.2 0-0.7 0.8-1.2 1.8-0.5 0.9-1.1 1.9-1.4 2-0.4 0.3-2.6 3.5-2.6 3.9 0 0.1-0.7 0.8-1.5 1.6-0.8 0.7-1.3 1.4-1.2 1.4 0.1 0-0.9 1.1-2.2 2.5-1.4 1.5-2.7 2.6-2.9 2.6-0.2 0-1.1 0.8-2.1 1.8-1 1-1.9 1.8-2.1 1.8-0.2 0-0.7 0.4-1.2 1-0.5 0.5-1.1 1-1.4 1-0.2 0-0.7 0.4-1 0.8-0.3 0.5-0.7 0.9-0.7 0.8-0.2-0.3-2.1 0.4-2.9 1.1-0.4 0.4-1.9 1.3-3.4 2-2.2 1-2.6 1.3-2.5 2.1 0.1 0.5 0.1 0.6 0 0.4-0.3-0.6-2.2-0.7-2.2-0.2 0 0.2-0.8 0.5-1.7 0.6-1 0.2-1.9 0.5-2 0.7-0.2 0.2-0.8 0.4-1.4 0.4-0.7 0-1.2 0.1-1.2 0.3 0 0.3-0.7 0.4-1.5 0.4-0.9 0-1.7 0.2-1.8 0.4-0.1 0.2-1.7 0.5-3.4 0.6-1.7 0.2-3.2 0.5-3.2 0.7 0 0.2-0.7 0.3-1.7 0.3-1 0-1.9 0.2-2 0.4-0.1 0.2-1 0.4-1.9 0.4-1 0-1.9 0.1-2 0.3-0.2 0.2-0.7 0.3-1.2 0.4-3.6 0.2-6.9 0.7-6.9 1 0 0.1-1 0.3-2.2 0.3-1.2 0-2.2 0.1-2.2 0.3 0 0.2-1.9 0.5-4.2 0.8-2.4 0.2-5.5 0.6-7 0.9-1.6 0.2-3.9 0.5-5.3 0.6-1.3 0.1-2.4 0.4-2.4 0.5 0 0.2-2.4 0.5-5.2 0.6-2.8 0.2-5.2 0.5-5.3 0.7-0.2 0.2-1.5 0.3-3 0.3-1.5 0-2.8 0.2-2.9 0.4-0.2 0.2-1.6 0.4-3.2 0.4-1.6 0-2.9 0.2-2.9 0.3 0 0.2-0.4 0.4-0.7 0.4-5.8 0.2-12.1 0.7-12.2 1-0.1 0.2-1.7 0.3-3.6 0.3-1.8 0-3.3 0.2-3.3 0.4 0 0.2-2 0.4-4.4 0.6-2.5 0.1-5.3 0.3-6.3 0.4-0.9 0-4 0.2-6.8 0.4-2.7 0.2-5 0.4-5 0.6 0 0.2-1.8 0.4-3.9 0.4-2.2 0-4 0.1-4 0.3 0 0.2-3.7 0.5-8.2 0.8-4.5 0.3-9.9 0.6-11.9 0.7-2.1 0.1-3.9 0.4-4.2 0.6-0.2 0.2-2.1 0.3-4.2 0.3-2.1 0-3.9 0.2-3.9 0.4 0 0.2-3.4 0.5-7.7 0.6-4.2 0.2-7.8 0.5-7.9 0.7-0.4 0.6-4.9 0.4-4.9-0.3 0-0.3 0.3-0.6 0.8-0.6 0.4 0 0.8-0.1 1-0.4 0.1-0.2 1-0.4 2-0.4 0.9 0 1.7-0.1 1.7-0.3 0-0.2 1-0.5 2.3-0.6 1.2-0.2 2.7-0.4 3.3-0.5 0.5-0.1 1.9-0.3 3-0.4 1.2-0.1 2.2-0.4 2.3-0.6 0.1-0.2 1.1-0.3 2.2-0.3 1.1 0 1.9-0.2 1.9-0.4 0-0.2 1.6-0.5 3.6-0.6 1.9-0.2 3.6-0.5 3.8-0.7 0.1-0.1 1-0.3 2.1-0.3 1.1 0 2-0.2 2.2-0.4 0.1-0.2 1.1-0.4 2.2-0.4 1 0 1.9-0.1 1.9-0.3 0-0.3 2-0.6 10.6-1.5 1.1-0.1 2.1-0.4 2.1-0.6 0-0.2 0.9-0.4 2.1-0.4 1.3 0 2.2-0.1 2.2-0.4 0-0.2 0.2-0.4 0.5-0.3 1.1 0.2 8.6-0.6 8.8-0.9 0.1-0.2 1.2-0.3 2.4-0.3 1.2 0 2.1-0.2 2.1-0.4 0-0.1 2.1-0.5 4.7-0.8 2.5-0.2 5.6-0.5 6.8-0.7 1.2-0.1 2.3-0.4 2.5-0.6 0.2-0.1 1.3-0.3 2.5-0.3 1.1 0 2.1-0.2 2.1-0.4 0-0.1 2-0.4 4.4-0.6 2.5-0.1 4.6-0.4 4.9-0.6 0.3-0.3 1.3-0.4 6.8-1 1.1-0.2 2-0.4 2-0.6 0-0.1 1.9-0.4 4.2-0.6 2.3-0.1 4.2-0.4 4.4-0.6 0.1-0.2 1.1-0.4 2.1-0.4 1.1 0 2-0.1 2-0.4 0-0.2 1-0.3 2.1-0.3 1.2 0 2.2-0.2 2.2-0.4 0-0.1 0.5-0.3 1.1-0.4 0.6 0 2.3-0.2 3.9-0.5 1.5-0.2 3.5-0.5 4.4-0.6 0.9-0.1 1.7-0.3 1.7-0.5 0-0.2 1.2-0.4 2.7-0.6 1.5-0.1 3.2-0.4 3.8-0.6 0.6-0.2 1.5-0.4 2.2-0.4 0.6 0 1.1-0.2 1.1-0.4 0-0.2 0.7-0.4 1.6-0.4 0.8 0 1.6-0.1 1.8-0.3 0.2-0.2 2.7-0.8 6.8-1.5 0.7-0.2 1.4-0.4 1.5-0.6 0.1-0.2 0.8-0.4 1.4-0.4 0.6 0 1.2-0.1 1.2-0.3 0-0.2 0.9-0.5 2-0.6 1.1-0.1 2.2-0.4 2.4-0.6 0.3-0.3 1-0.4 1.6-0.4 0.6 0 1.1-0.2 1.1-0.4 0-0.3 0.5-0.4 1.2-0.4 0.6 0 1.1-0.2 1-0.4-0.2-0.2 0.7-0.5 1.9-0.6 1.2-0.2 2.2-0.4 2.2-0.6 0-0.2 0.4-0.4 1-0.4 0.5 0 1-0.2 1-0.4 0-0.2 0.3-0.4 0.8-0.4 0.7 0 2.7-0.7 4.4-1.6 0.4-0.2 0.9-0.4 1.3-0.4 0.3 0 0.6-0.2 0.6-0.4 0-0.2 0.2-0.4 0.5-0.4 0.8 0 5-2.2 4.8-2.4-0.1-0.1 0.3-0.3 0.9-0.5 0.6-0.1 1.5-0.5 1.9-1 0.5-0.4 1.1-0.8 1.3-0.8 0.2 0 0.4-0.2 0.4-0.4 0-0.2 0.4-0.5 0.9-0.6 0.4-0.2 1.3-0.8 2-1.4 0.7-0.7 1.4-1.2 1.6-1.2 0.4 0 11.7-11.2 11.7-11.7 0-0.2 0.7-1.1 1.6-2.1 0.9-1 1.7-2.1 1.8-2.5 0.1-0.4 0.4-0.7 0.6-0.7 0.2 0 0.4-0.2 0.4-0.6 0-0.3 0.1-0.6 0.3-0.6 0.3 0 1.6-2.2 1.6-2.9 0-0.2 0.4-0.7 0.8-1 0.5-0.3 0.8-0.7 0.8-0.9 0-0.5 1.3-3.2 1.6-3.5 0.4-0.3 1.6-3 1.6-3.7 0-0.4 0.2-0.6 0.4-0.4 0.2 0.1 0.4-0.3 0.4-1 0-0.7 0.1-1.2 0.4-1.2 0.2 0 0.4-0.4 0.4-1 0-0.5 0.1-1 0.3-1 0.2 0 0.3-0.3 0.2-0.7-0.1-0.4 0-0.9 0.2-1 0.2-0.2 0.4-0.9 0.4-1.7 0-0.7 0.2-1.3 0.4-1.3 0.3 0 0.4-0.9 0.4-2 0-1.1 0.2-2 0.5-2 0.7 0-0.1-9.6-0.9-10.1-0.2-0.1-0.4-0.6-0.4-1.2 0-0.5-0.1-0.9-0.4-0.9-0.2 0-0.3-0.2-0.3-0.3 0.5-1.7-1.5-2.9-5.1-3.2-1.3-0.1-2.5-0.4-2.5-0.5 0-0.2-0.8-0.4-1.9-0.4-1.1 0-2.1-0.1-2.2-0.3-0.1-0.2-2.1-0.5-4.3-0.7-2.3-0.1-4.1-0.4-4-0.6 0.2-0.2-0.5-0.4-1.3-0.4-0.9 0-1.7-0.1-1.8-0.4-0.2-0.2-0.8-0.4-1.4-0.4-0.7 0-1.3-0.1-1.4-0.3-0.1-0.2-1.2-0.5-2.4-0.7-1.2-0.1-2-0.4-1.9-0.6 0.1-0.2-0.2-0.3-0.6-0.3-0.5 0-0.8-0.2-0.8-0.3 0-0.4-3-1.7-3.8-1.7-0.3 0-0.6-0.2-0.6-0.4 0-0.2-0.2-0.4-0.6-0.4-0.3 0-0.6-0.2-0.6-0.4 0-0.2-0.5-0.5-1.1-0.7-0.6-0.2-1.3-0.6-1.7-1-0.3-0.3-1.3-0.9-2.2-1.3-0.9-0.5-1.5-1-1.4-1.1 0.1-0.1 0-0.2-0.4-0.2-0.4 0-0.7-0.2-0.7-0.4 0-0.3-0.2-0.4-0.6-0.4-0.3 0-0.5-0.2-0.5-0.4 0-0.2-0.4-0.5-0.8-0.6-0.4-0.1-0.9-0.8-1.1-1.5-0.3-1-0.6-1.3-1.8-1.6-1.5-0.3-4.3-2-6.2-3.7-0.6-0.5-1.2-0.9-1.5-0.9-0.3 0-0.4-0.2-0.3-0.4 0.1-0.3 0.1-0.4-0.2-0.4-0.2 0-0.8-0.4-1.3-0.8-2.8-2.6-4.5-4-4.7-4-0.3 0-0.6-0.2-3.8-3.1-0.9-0.9-1.9-1.6-2.1-1.6-0.2 0-1-0.6-1.7-1.3-2.3-2.1-3.1-2.8-4.3-3.6-0.7-0.5-1.6-1.1-2-1.5-0.4-0.4-1.1-0.8-1.5-1-0.4-0.1-0.7-0.4-0.7-0.6 0-0.2-0.2-0.3-0.4-0.3-0.2 0-0.8-0.4-1.3-0.8-0.5-0.5-1.3-0.9-1.8-1.1-0.4-0.1-0.8-0.4-0.8-0.5 0-0.2-0.2-0.4-0.5-0.4-0.2 0-0.8-0.4-1.2-0.8-0.5-0.5-1.4-0.9-2-1.1-0.6-0.1-1.1-0.3-1.1-0.5 0-0.2-0.3-0.4-0.6-0.4-0.3 0-0.6-0.1-0.6-0.3 0-0.4-3-1.6-3.9-1.6-0.5 0-0.7-0.2-0.6-0.4 0.1-0.3-0.2-0.4-0.8-0.4-0.5 0-1-0.2-1-0.4 0-0.2-0.9-0.5-2.1-0.6-3.1-0.4-3.4-0.6-3.4-1.6 0-0.6 0.2-1 0.4-1 0.2 0 0.4-0.3 0.4-0.6 0-0.3 0.2-0.6 0.4-0.6 0.2 0 0.4-0.3 0.4-0.8 0-0.4 0.1-0.8 0.3-0.8 0.2 0 0.5-0.5 0.7-1.2 0.1-0.6 0.4-1.1 0.5-1.1 0.2 0 0.7-0.7 1.1-1.6 0.4-0.9 0.8-1.6 1-1.6 0.2 0 0.3-0.2 0.3-0.4 0-0.3 0.2-0.7 0.5-0.9 0.3-0.3 0.9-1 1.3-1.6 0.4-0.6 1-1.4 1.3-1.7 0.2-0.3 0.5-0.6 0.5-0.7 0-0.4 5.8-6.4 8.3-8.5 0.8-0.8 2-1.8 2.4-2.2 0.5-0.5 1.6-1.2 2.4-1.6 0.8-0.4 1.5-0.9 1.5-1.1 0-0.1 0.2-0.3 0.6-0.3 0.3 0 0.6-0.1 0.6-0.3 0-0.1 0.8-0.6 1.7-1.1 1-0.4 1.8-0.9 1.8-1 0-0.2 0.4-0.4 0.8-0.4 0.5 0 0.7-0.1 0.6-0.3-0.1-0.3 0.2-0.4 0.7-0.4 0.5 0 1.4-0.3 2-0.6 0.6-0.4 1.4-0.6 1.7-0.6 0.3 0 0.5-0.2 0.5-0.4 0-0.2 0.6-0.4 1.2-0.4 0.7 0 1.1-0.2 1-0.4-0.1-0.2 1-0.5 2.6-0.6 1.5-0.2 2.8-0.4 3-0.6 0.1-0.2 1.3-0.4 2.7-0.4 1.4 0 2.6-0.2 2.6-0.4 0-0.2 1.5-0.4 3.7-0.4z"/>
		<path id="path1" fill-rule="evenodd" class="s1" d="m218.7 64.6c0.1 0.3 0.4 0.9 0.6 1.4 0.2 0.4 0.9 3 1.7 5.7 4.8 16.9 8.1 26.4 12.2 35.3 0.8 1.7 1.5 3.2 1.5 3.3 0 0 1.6 3.5 3.5 7.5 2 4.1 3.9 8.1 4.3 9 0.3 0.8 0.9 1.4 1.2 1.4 0.4 0 0.7 0.5 0.7 1.1 0.1 0.6 0.3 1.2 0.5 1.3 0.2 0 0.4 0.3 0.4 0.7 0 0.3 0.2 0.5 0.4 0.5 0.2 0 0.4 0.4 0.4 0.8 0 0.4 0.2 0.8 0.4 0.8 0.2 0 0.5 0.6 0.6 1.4 0.2 0.7 0.4 1.4 0.6 1.4 0.2 0 0.4 0.4 0.4 0.9 0 0.6 0.1 1 0.3 1 0.3 0 1.3 2.1 1.4 3 0.1 0.2 0.2 0.7 0.3 1 0.1 0.3 0.4 1.3 0.7 2.2 0.3 0.8 0.6 1.9 0.8 2.3 0.2 0.5 1.9 4.6 3.8 9.2 2.3 5.6 3.6 8.4 4 8.4 0.4 0 0.5 0.3 0.4 0.6-0.1 0.4-0.1 0.6 0.1 0.6 0.2 0 0.4 0.5 0.4 1 0 0.6 0.2 1 0.4 1 0.2 0 0.4 0.4 0.4 0.8 0 0.4 0.2 0.8 0.4 0.8 0.2 0 0.4 0.4 0.4 0.9 0 0.5 0.1 1.1 0.3 1.2 0.2 0.2 0.3 0.4 0.3 0.6 0.7 3.4 1.4 2.3 1.4-2.3 0-2.4 0.1-4.4 0.3-4.5 0.2-0.1 0.5-3.9 0.6-8.5 0.2-4.5 0.5-8.3 0.7-8.6 0.2-0.2 0.3-1.2 0.3-2.2 0-1.1 0.2-1.9 0.4-1.9 0.3 0 0.4-0.8 0.4-1.8 0-1 0.2-1.8 0.5-1.8 0.2 0 0.3-0.5 0.3-1.1-0.1-0.6 0.2-1.6 0.5-2.3 0.4-0.7 0.6-1.3 0.4-1.5-0.1-0.1 0.1-0.5 0.4-0.9 0.3-0.4 1.5-2.4 2.5-4.4 3.5-6.7 14.5-20 18-21.9 1-0.5 1.2-0.8-3.6 6.2-3.7 5.4-5.9 9.4-5.9 10.4 0 0.3-0.2 0.5-0.4 0.5-0.2 0-0.4 0.3-0.4 0.6 0 0.3-0.2 0.6-0.4 0.6-0.2 0-0.5 0.6-0.6 1.4-0.2 0.7-0.5 1.3-0.6 1.3-0.2 0-0.4 0.4-0.4 0.8 0 0.5-0.2 0.8-0.4 0.8-0.2 0-0.4 0.3-0.4 0.6 0 0.3-0.2 0.6-0.4 0.6-0.2 0-0.4 0.8-0.6 1.8-0.1 1-0.4 1.8-0.6 1.8-0.2 0-0.4 0.4-0.4 0.9 0 0.6-0.1 1-0.3 1.1-0.3 0.1-0.5 0.7-0.5 1.4-0.1 0.7-0.2 1.3-0.3 1.3-0.3 0-1.2 3.9-1.2 5 0 0.4-0.2 1-0.4 1.2-0.6 0.7-1.2 7.5-1.2 14.3 0 5.9 0.2 10.4 1 19.1 1.6 18 1.6 34.3-0.1 44.6-0.3 2.1-0.6 4.7-0.7 5.7-0.1 1.1-0.2 2-0.4 2.2-0.1 0.1-0.2 1-0.2 2 0 1.1-0.1 2-0.3 2.2-0.5 0.5-1.2 3.4-1 4 0.1 0.3 0 0.6-0.2 0.6-0.2 0-0.5 0.9-0.7 2.1-0.1 1.2-0.4 2.3-0.6 2.4-0.2 0.2-0.4 0.7-0.4 1.2 0 0.6-0.1 1-0.4 1-0.2 0-0.4 0.4-0.4 1 0 0.5-0.1 1-0.3 1-0.2 0-0.5 0.8-0.7 1.7-0.1 1-0.4 1.8-0.6 1.8-0.2 0-0.3 0.4-0.3 0.8 0 0.4-0.2 0.9-0.4 1-0.2 0.1-0.4 0.6-0.4 1 0 0.4-0.2 0.8-0.4 0.8-0.3 0-0.4 0.2-0.2 0.4 0.1 0.2 0 0.4-0.2 0.6-0.2 0.1-0.4 0.6-0.4 1 0 0.4-0.2 0.8-0.4 0.8-0.2 0-0.4 0.2-0.4 0.6 0 0.3-0.2 0.5-0.4 0.5-0.2 0-0.4 0.3-0.4 0.6 0 0.7-1.2 3.1-1.7 3.3-0.1 0.1-0.3 0.5-0.3 0.9 0 0.4-0.1 0.8-0.3 0.8-0.2 0-0.5 0.5-0.6 1.1-0.2 0.6-0.6 1.5-1.1 2-0.4 0.4-0.7 1-0.7 1.2 0 0.2-0.2 0.4-0.4 0.4-0.2 0-0.5 0.5-0.6 1-0.2 0.6-0.4 1-0.6 1-0.2 0-0.4 0.3-0.4 0.6 0 0.4-0.4 1-1 1.5-0.5 0.4-1 1-1 1.3 0 0.3-0.3 0.7-0.7 1-0.4 0.3-1 1.1-1.4 1.7-0.4 0.7-1.1 1.6-1.6 2.1-1.2 1.3-1.8 2-1.8 2.3 0 0.2-4.3 4.4-5.7 5.5-0.6 0.4-1.5 1.2-2 1.7-0.5 0.5-1.1 0.9-1.4 0.9-0.2 0-0.3 0.2-0.2 0.3 0.1 0.2-0.2 0.5-0.8 0.6-0.5 0.2-1 0.5-1 0.7 0 0.2-0.2 0.4-0.4 0.4-0.2 0-0.7 0.3-1.1 0.7-0.3 0.4-1.4 1-2.3 1.5-0.9 0.4-1.7 0.9-1.7 1 0 0.2-0.2 0.3-0.6 0.3-0.3 0-0.6 0.2-0.6 0.4 0 0.2-0.2 0.4-0.6 0.4-0.6 0-3.4 1.2-3.7 1.6-0.2 0.2-3 1-5.2 1.5-0.6 0.1-1.1 0.3-1.1 0.5 0 0.2-0.7 0.4-1.6 0.4-0.9 0-1.6 0.2-1.6 0.4 0 0.2-1 0.4-2.1 0.4-2.1 0-2.2-0.1-2.1-1 0-0.8 0.2-1 0.7-0.8 0.4 0.1 0.8 0 1-0.3q0.3-0.4-0.2-0.1-0.6 0.3-0.3-0.2c0.2-0.2 0.7-0.3 1.1-0.2 0.5 0.2 0.7 0.1 0.6-0.1-0.1-0.2 0.1-0.4 0.4-0.4 0.4 0.1 0.7-0.1 0.6-0.4-0.1-0.4 0.1-0.5 0.5-0.4 0.3 0.2 0.8-0.1 1.2-0.7 0.6-1 1.6-1.4 1.2-0.5-0.2 0.3 0 0.2 0.3-0.1 0.2-0.4 0.7-0.6 0.9-0.5 0.3 0.1 0.8-0.3 1.2-0.8 0.3-0.6 0.7-1 0.9-0.9 0.4 0.4 2.4-1.1 2.2-1.7q-0.2-0.5 0.4-0.3c0.3 0.1 0.8-0.1 1.1-0.5 0.3-0.5 0.6-0.7 0.8-0.6 0.1 0.1 0.5-0.2 0.9-0.7 0.6-0.7 0.6-0.8 0.1-0.3-1.1 0.8-0.8 0.2 0.4-0.8 0.5-0.6 0.8-0.7 0.5-0.3-0.3 0.4-0.4 0.7-0.2 0.7 0.6 0 4.7-4.3 4.6-4.8-0.1-0.2 0.1-0.3 0.3-0.2 0.2 0.2 0.9-0.3 1.5-1 0.7-0.7 2.2-2.4 3.4-3.6 1.2-1.3 2.2-2.5 2.2-2.7 0-0.1 0.5-0.9 1.1-1.6 2-2.1 2.4-2.6 3-3.9 0.4-0.6 0.8-1.2 1-1.2 0.3 0 0.4-0.3 0.4-0.7 0-0.4 0.3-0.9 0.6-1 0.3-0.1 0.6-0.6 0.6-1 0-0.5 0.2-0.8 0.4-0.8 0.2 0 0.8-1.1 1.4-2.3 0.7-1.3 1.3-2.4 1.4-2.5 0.5-0.4 1.6-2.7 1.6-3.3 0-0.4 0.1-0.6 0.3-0.6 0.3 0 0.4-0.4 0.4-0.8 0-0.5 0.2-0.8 0.3-0.8 0.5 0 1.7-3 1.7-4 0-0.4 0.2-0.8 0.4-0.8 0.2 0 0.4-0.4 0.4-1 0-0.5 0.2-0.9 0.4-0.9 0.2 0 0.4-0.5 0.4-1 0-0.5 0.2-1.1 0.4-1.2 0.2-0.1 0.2-0.6 0.1-1-0.1-0.4 0-0.8 0.3-1 0.2-0.1 0.4-0.8 0.4-1.4 0-0.6 0.2-1.2 0.4-1.4 0.2-0.1 0.4-0.7 0.4-1.3 0-0.6 0.1-1.3 0.4-1.5 0.2-0.2 0.5-2.7 0.6-5.6 0.2-2.9 0.4-5.2 0.6-5.2 0.2 0 0.3-1.3 0.3-2.8 0-1.6-0.1-2.8-0.4-2.8-0.2 0-0.4-1.3-0.4-3 0-1.7-0.2-4-0.4-5.1-0.2-1-0.5-2.6-0.6-3.4-0.1-0.8-0.4-1.5-0.6-1.5-0.2 0-0.3-0.4-0.3-1 0-0.5-0.2-1-0.4-1.2-0.2-0.1-0.5-0.9-0.6-1.8-0.2-0.8-0.4-1.5-0.5-1.5-0.4 0-1.3-2-1.3-2.9 0-0.4-0.3-0.8-0.6-1-0.3-0.1-0.6-0.5-0.6-0.9 0-0.4-0.1-0.8-0.3-0.8-0.1 0-0.6-0.7-1-1.6-0.4-0.8-0.9-1.5-1.1-1.5-0.1 0-0.4-0.4-0.5-0.8-0.2-0.5-0.7-1.3-1.1-1.8-1.6-1.7-2.4-2.8-2.4-3 0-0.1-0.1-0.1-0.3-0.1-0.3 0.1-0.3-0.1-0.2-0.3 0.6-0.9-7.3-8.1-13.2-12.1-7.4-5-22-11.8-30.2-14-0.7-0.2-3.5-0.9-6.3-1.7-6.1-1.6-5.7-1.9 1.2-1.2 20.9 2.1 39.8 11 53 24.8 0.8 0.8 1.6 1.5 1.8 1.5 0.3 0 0.8 0.3 1.1 0.6 0.9 1 1.5 1.6 2.6 2.6 0.5 0.5 0.9 1 0.9 1.2 0 0.1 0.8 1.1 1.8 2.1 0.9 1 1.7 2 1.7 2.2 0 0.2 0.2 0.4 0.4 0.4 0.3 0 0.4-1.2 0.4-2.8 0-1.5-0.2-2.8-0.4-3-0.2-0.1-0.4-1.6-0.4-3.4 0-1.8-0.1-3.1-0.4-3.1-0.2 0-0.4-0.9-0.4-2 0-1-0.1-2-0.3-2.1-0.2-0.1-0.5-1.6-0.6-3.2-0.2-1.7-0.5-3-0.7-3-0.2 0-0.3-0.6-0.3-1.4 0-0.7-0.2-1.4-0.4-1.4-0.2 0-0.4-0.4-0.4-0.9 0-0.6-0.2-1-0.4-1-0.2 0-0.4-0.5-0.4-1.1 0-1.6-0.4-3.7-0.8-3.7-0.2 0-0.4-0.4-0.4-1 0-0.5-0.2-1-0.3-1-0.2 0-0.5-0.8-0.7-1.7-0.1-1-0.4-1.8-0.6-1.8-0.2 0-0.4-0.5-0.4-1 0-0.6-0.1-1-0.4-1-0.2 0-0.4-0.4-0.4-1 0-0.5-0.1-1-0.3-1-0.2 0-0.5-0.8-0.7-1.8-0.1-0.9-0.4-1.7-0.6-1.7-0.2 0-0.3-0.5-0.3-1 0-0.6-0.2-1-0.4-1-0.2 0-0.4-0.4-0.4-0.8 0-0.4-0.2-0.8-0.4-0.8-0.2 0-0.4-0.7-0.6-1.6-0.1-0.8-0.4-1.6-0.6-1.6-0.2 0-0.4-0.5-0.4-1.1 0-0.7-0.2-1.2-0.3-1.2-0.2 0-0.5-0.4-0.7-0.9-0.1-0.5-0.3-1-0.4-1.1 0-0.1-0.2-0.8-0.4-1.5-0.1-0.7-0.4-1.3-0.6-1.3-0.2 0-0.4-0.4-0.4-1 0-0.5-0.1-1-0.3-1-0.2 0-0.6-1-0.9-2.2-0.7-3.5-2.8-8.9-5.5-14.4-1.3-2.7-3-6.1-3.6-7.5-0.6-1.4-1.6-3.4-2.1-4.5-2.8-6.2-5.9-15-7.9-22.4-1.3-5.3-4.6-20.8-4.5-21.8q0-0.5 0.2 0.1zm-33.6 21.9c-0.4 0.3-0.5 0.6-0.4 0.6 0.1 0-1 1.2-2.4 2.6-1.4 1.4-2.6 2.6-2.7 2.6-0.1 0-0.9 0.6-1.8 1.4-0.8 0.9-2.2 2.1-3 2.8-0.9 0.7-2.5 2.2-3.7 3.3-1.2 1.1-2.3 2-2.5 2-0.2 0-0.2 0.1-0.1 0.3 0.2 0.3 0.1 0.4-0.2 0.4-0.4 0-0.6 0.2-2.7 2-0.6 0.5-1.9 1.6-2.8 2.4-0.9 0.8-2.2 2-3 2.7-0.7 0.7-1.4 1.2-1.6 1.2-0.1 0-0.8 0.5-1.4 1.1-2.2 2.2-3.1 2.9-3.5 2.9-0.2 0-0.3 0.2-0.2 0.4 0.2 0.2 0 0.4-0.3 0.4-0.3 0-1 0.4-1.4 1-0.4 0.5-1 1-1.2 1-0.3 0-0.4 0.1-0.2 0.4 0.1 0.2-0.1 0.4-0.4 0.4-0.3 0-1.3 0.6-2.2 1.4-0.8 0.9-2.1 2-2.8 2.5-0.6 0.6-1.6 1.4-2.1 1.9-0.6 0.5-1.2 0.9-1.4 0.9-0.2 0-0.4 0.1-0.5 0.3-0.1 0.1-0.8 0.8-1.6 1.5-0.8 0.7-1.3 1.4-1.2 1.5 0.1 0.1 0 0.2-0.4 0.2-0.3 0-1 0.5-1.5 0.9-0.5 0.5-1.7 1.5-2.5 2.1-0.9 0.7-1.8 1.4-2 1.6-0.3 0.2-1.2 1-2.1 1.8-1 0.7-2.1 1.8-2.6 2.2-0.6 0.5-1.2 0.9-1.4 0.9-0.3 0-0.3 0.2-0.2 0.4 0.1 0.3 0 0.4-0.3 0.4-0.3 0-0.9 0.5-1.3 1-0.4 0.6-0.9 1-1.1 1-0.3 0-0.6 0.2-2.5 1.9-0.7 0.6-2 1.7-2.9 2.5-0.9 0.7-2.1 1.7-2.6 2.2-0.5 0.5-1.1 0.9-1.4 0.9-0.2 0-0.3 0.2-0.2 0.4 0.2 0.2 0.1 0.4-0.2 0.4-0.3 0-1.3 0.7-2.3 1.6-0.9 0.9-1.7 1.6-1.8 1.6-0.1 0-0.6 0.4-1.1 0.9-0.5 0.5-1.7 1.5-2.6 2.2-0.9 0.8-2.4 2-3.2 2.8-0.9 0.8-2.1 1.8-2.8 2.4-0.6 0.5-1.9 1.6-2.7 2.4-0.9 0.7-2.3 2-3.2 2.7-0.9 0.8-2.3 2-3.1 2.8-2 1.7-4.4 3.7-5.4 4.5-0.7 0.5 1 0.6 16.5 0.6 15.1 0 17.3 0.1 17.3 0.6 0 0.4-0.2 0.6-0.4 0.6-0.2 0-0.4 0.5-0.4 1.2 0 0.6-0.2 1.2-0.4 1.4-0.2 0.1-0.4 1.3-0.6 2.6-0.1 1.3-0.4 2.3-0.6 2.3-0.2 0-0.4 0.7-0.5 1.6-0.2 0.9-0.4 2.3-0.5 3.2-0.2 0.9-0.4 1.6-0.6 1.6-0.2 0-0.3 0.3-0.2 0.7 0.2 0.4 0.1 0.9-0.1 1-0.3 0.2-0.5 1.1-0.5 2 0 1-0.1 1.8-0.4 1.8-0.2 0-0.3 0.7-0.3 1.6 0 0.8-0.2 1.6-0.4 1.7-0.2 0.2-0.5 1.9-0.7 3.8-0.1 2-0.4 3.7-0.6 3.8-0.2 0.1-0.3 1.1-0.3 2.2 0 1-0.2 1.9-0.4 1.9-0.2 0-0.4 1.2-0.4 2.8 0 1.5-0.2 2.8-0.4 2.8-0.2 0.1-0.5 3.5-0.6 7.8-0.2 4.2-0.5 7.7-0.7 7.8-0.4 0.3-0.4 20 0 20 0.2 0 0.5 3.1 0.6 7 0.2 3.8 0.5 7.1 0.7 7.4 0.2 0.2 0.4 1.3 0.4 2.4 0 1.2 0.2 2.2 0.4 2.3 0.2 0.2 0.4 1 0.4 1.8 0 0.9 0.1 1.7 0.3 1.8 0.2 0.1 0.5 1.5 0.7 3.2 0.1 1.6 0.4 3 0.6 3.1 0.2 0.2 0.4 0.8 0.4 1.4 0 0.7 0.1 1.2 0.3 1.2 0.2 0 0.4 0.7 0.6 1.5 0.1 0.8 0.3 1.9 0.4 2.5 0.1 0.5 0.3 1.5 0.5 2.2 0.1 0.7 0.4 1.3 0.6 1.3 0.2 0 0.3 0.5 0.3 1 0 0.5 0.2 1 0.4 1 0.2 0 0.4 0.8 0.6 1.8 0.1 0.9 0.4 1.8 0.6 2 1.8 1.1 0.3 2.4-2.9 2.7-5.6 0.4-8.2 0.3-8.2-0.4 0-0.3-0.1-0.6-0.4-0.6-0.2 0-0.3-0.3-0.3-0.8 0-0.4-0.2-0.8-0.4-0.8-0.2 0-0.5-0.6-0.7-1.3-0.1-0.8-0.4-1.5-0.6-1.6-0.2-0.2-0.3-0.6-0.3-1 0-0.5-0.2-0.8-0.4-0.8-0.2 0-0.4-0.3-0.4-0.6 0-0.3-0.2-0.6-0.4-0.6-0.2 0-0.4-0.8-0.6-1.8-0.1-0.9-0.4-1.8-0.6-2-0.2-0.1-0.4-0.5-0.4-1 0-0.4-0.2-0.7-0.4-0.7-0.2 0-0.4-0.5-0.4-1 0-0.5-0.1-1.1-0.3-1.2-0.2-0.1-0.5-1.2-0.6-2.4-0.2-1.2-0.5-2.1-0.7-2.1-0.2 0-0.4-0.7-0.4-1.4 0-0.8-0.1-1.4-0.3-1.4-0.3 0-0.4-0.6-0.4-1.4 0-0.7-0.2-1.4-0.4-1.6-0.3-0.1-0.5-0.8-0.5-1.5 0-2.4-0.4-5.4-0.8-5.4-0.2 0-0.3-1.1-0.3-2.4 0-1.3-0.2-2.3-0.4-2.2-0.6 0.4-0.9-12.3-0.7-25.6 0.2-8.5 0.4-12.7 0.7-12.8 0.2-0.1 0.4-1.3 0.4-2.7 0-1.4 0.2-2.6 0.4-2.8 0.2-0.1 0.4-1.1 0.4-2.1 0-1.1 0.1-2 0.3-2 0.2 0 0.2-0.7 0.1-1.5 0-0.9 0.1-1.7 0.3-1.8 0.3-0.2 0.5-1 0.5-1.9 0-0.8 0.1-1.5 0.4-1.5 0.2 0 0.3-0.8 0.3-1.8 0-1 0.2-1.8 0.4-1.8 0.2 0 0.5-1.3 0.6-2.9 0.2-1.7 0.5-2.9 0.7-2.8 0.2 0.1 0.3-0.4 0.3-1.2 0-0.8 0.2-1.4 0.4-1.4 0.2 0 0.4-0.6 0.4-1.4 0-0.7 0.2-1.4 0.4-1.4 0.2 0 0.4-0.2 0.4-0.6 0-0.5-2.5-0.5-20.5-0.5-13.5 0-20.6-0.2-20.6-0.4 0-0.3-1.2-0.4-2.9-0.4-1.7 0-3-0.2-3-0.4 0-0.2-0.9-0.4-2-0.6-1-0.1-1.9-0.4-1.9-0.6 0-0.2-0.3-0.4-0.6-0.4-0.4 0-0.6-0.4-0.6-0.8 0-0.4-0.2-0.8-0.4-0.8-0.2 0-0.4-0.4-0.4-1 0-0.5 0.2-1 0.4-1 0.2 0 0.4-0.2 0.4-0.6 0-0.3 0.2-0.6 0.4-0.6 0.2 0 0.4-0.2 0.4-0.6 0-0.8 5-5.7 5.9-5.7 0.2 0 0.4-0.1 0.4-0.3 0-0.2 0.6-0.6 1.4-1 0.7-0.5 1.4-0.9 1.4-1.1 0-0.2 0.1-0.4 0.4-0.4 0.4 0 0.8-0.3 2.1-1.4 0.3-0.3 0.7-0.5 1-0.5 0.2 0 0.4-0.2 0.4-0.4 0-0.2 0.6-0.6 1.4-1 0.7-0.5 1.4-0.9 1.4-1.1 0-0.2 0.2-0.3 0.6-0.3 0.3 0 0.5-0.2 0.4-0.4-0.1-0.2 0.2-0.4 0.7-0.6 0.6-0.1 1-0.4 1-0.6 0-0.2 0.2-0.4 0.4-0.4 0.3 0 0.9-0.4 1.4-1 0.6-0.5 1.2-1 1.5-1 0.3 0 0.8-0.3 1.1-0.8 0.3-0.4 0.7-0.7 0.9-0.7 0.3 0 0.8-0.4 2-1.5 0.3-0.3 0.8-0.5 1-0.5 0.2 0 0.4-0.2 0.4-0.4 0-0.2 0.4-0.5 0.8-0.6 0.4-0.1 1.3-0.8 1.9-1.4 0.7-0.7 1.4-1.2 1.6-1.2 0.2 0 0.9-0.4 1.4-1 0.5-0.5 1.2-1 1.4-1 0.2 0 0.4-0.1 0.4-0.3 0-0.2 0.3-0.5 0.7-0.6 0.4-0.1 1.3-0.8 2.1-1.4 0.7-0.7 1.7-1.3 2.1-1.4 0.3-0.2 0.6-0.4 0.6-0.6 0-0.2 0.3-0.4 0.7-0.4 0.3 0 0.5-0.2 0.4-0.4-0.2-0.1 0.2-0.4 0.7-0.6 0.6-0.1 1-0.4 1-0.6 0-0.2 0.2-0.4 0.5-0.4 0.3 0 0.8-0.3 1.1-0.8 0.3-0.4 0.7-0.8 1-0.8 0.2 0 0.9-0.4 1.4-0.9 0.6-0.6 1.3-1 1.5-1 0.3 0 0.4-0.2 0.3-0.4-0.2-0.2 0.2-0.5 0.7-0.6 0.6-0.1 1-0.4 1-0.6 0-0.2 0.3-0.4 0.6-0.4 0.3 0 0.6-0.2 0.6-0.4 0-0.2 0.3-0.5 0.7-0.6 0.4-0.1 1.3-0.8 2-1.4 0.7-0.6 1.4-1.2 1.6-1.2 0.2 0 0.7-0.3 1.1-0.7 2-1.7 2.4-2 3.6-2.7 0.7-0.4 1.3-0.8 1.3-1 0-0.2 0.2-0.3 0.6-0.3 0.3 0 0.5-0.2 0.4-0.4-0.1-0.2 0.2-0.4 0.6-0.6 0.8-0.2 1.4-0.6 3.8-2.6 0.2-0.2 0.6-0.4 0.8-0.4 0.2 0 0.6-0.3 0.9-0.8 0.3-0.4 0.7-0.8 0.8-0.8 0.2 0 1.1-0.5 2-1.1 0.9-0.7 1.5-1.2 1.3-1.2-0.2 0 0.4-0.4 1.3-0.9 0.9-0.4 1.7-1 1.7-1.2 0-0.1 0.2-0.3 0.6-0.3 0.3 0 0.6-0.2 0.6-0.4 0-0.2 0.3-0.4 0.7-0.6 0.3-0.1 1.2-0.6 1.8-1.2 0.6-0.5 1.3-1 1.4-1 0.2 0 0.8-0.5 1.5-1.2 0.7-0.6 1.4-1.1 1.6-1.1 0.1 0 0.8-0.5 1.3-1 0.6-0.6 1.3-1 1.5-1 0.2 0 0.4-0.2 0.4-0.4 0-0.2 0.3-0.4 0.6-0.4 0.3 0 1-0.5 1.6-1 0.5-0.5 1.1-1 1.2-1 0.2 0 0.8-0.4 1.9-1.5 0.3-0.2 0.8-0.5 1-0.5 0.2 0 0.4-0.1 0.4-0.3 0-0.1 0.6-0.6 1.3-1 0.7-0.4 1.6-1.1 1.9-1.4 0.3-0.4 1-0.8 1.5-1 0.5-0.1 0.9-0.4 0.9-0.6 0-0.2 0.2-0.4 0.5-0.4 0.2 0 0.7-0.4 1-0.8 0.4-0.4 0.8-0.8 1.1-0.8 0.3 0 0.9-0.4 1.5-1 0.5-0.5 1.1-1 1.4-1 0.2 0 0.4-0.1 0.4-0.4 0-0.2 0.2-0.4 0.6-0.4 0.3 0 1-0.4 1.5-0.9 0.5-0.5 1.3-1.1 1.8-1.2 0.4-0.2 0.8-0.5 0.8-0.7 0-0.2 0.2-0.3 0.5-0.3 0.2 0 0.7-0.4 1.1-0.7 0.3-0.4 0.9-0.9 1.2-1 1-0.5 2.1-1.3 2.7-1.9 0.4-0.4 1-0.8 1.5-0.9 0.5-0.2 0.9-0.5 0.9-0.7 0-0.2 0.3-0.4 0.6-0.4 0.3 0 0.6-0.1 0.6-0.3 0-0.2 0.6-0.7 1.4-1.1 0.7-0.4 1.4-0.9 1.4-1 0-0.2 0.2-0.3 0.6-0.3 0.3 0 0.6-0.2 0.6-0.4 0-0.2 0.4-0.4 0.9-0.6 0.4-0.1 1.2-0.6 1.7-1 0.5-0.4 1.1-0.8 1.3-0.8 0.2 0 0.4-0.2 0.4-0.4 0-0.1 0.4-0.4 1-0.6 0.5-0.1 1-0.4 1-0.6 0-0.2 0.2-0.4 0.6-0.4 0.3 0 0.6-0.2 0.6-0.4 0-0.2 0.2-0.4 0.5-0.4 0.4 0 0.6-0.1 0.6-0.3 0-0.2 0.4-0.5 0.9-0.6 2.7-0.5 3.5 0.1 2.1 1.5zm7.7 115c0.1 0 0 0.1-0.2 0.2-0.1 0.2 0.7 0.5 1.8 0.7 3 0.6 3.2 1.3 3 13.7l-0.1 9.6-23.1 0.3v-24.2l9.2-0.1c5.1 0 9.3-0.1 9.4-0.2zm-45.8 0.3h22.5v24.1h-22.5zm0 28.9h22.5v23.7h-22.5zm27.2 0h23.3v23.8h-23.3zm-73 80c1 0 1.4 0 0.9 0.1-0.5 0.1-1.3 0.1-1.8 0-0.5-0.1-0.1-0.1 0.9-0.1zm188.7 4.7c0.8 0 1.1 0.1 0.7 0.2-0.4 0.1-1 0.1-1.4 0-0.3-0.1 0-0.2 0.7-0.2zm-186.8 2.3c0 0 0.1 0.2 0.1 0.4 0 0.2-0.5 0.4-1.1 0.3h-1.1l1-0.3c0.5-0.2 1-0.4 1.1-0.4zm2.1 6.7h9.4v23.8c0 25.9 0 26.1-2.2 30.4-5.4 10.8-21.7 11-27.2 0.4-0.8-1.6-0.8-1.6 3.4-4.4 4.1-2.8 3.8-2.7 5.1-0.8 2.5 3.6 7.4 3.7 10.1 0.2l1.2-1.5 0.1-24zm18.5 0h9.8l0.3 42.5 0.9 2c4.1 9 15.2 9.3 19.9 0.5l0.9-1.7 0.1-21.7 0.1-21.6h9.9v21.8c0 24.2 0 24.2-2.7 29.4-7.5 14.5-27.4 15-35.6 1-3.4-5.8-3.4-5.3-3.5-30.2zm51.4 0h11.3c14.4 0 16 0.4 20.2 4.9 4.2 4.6 5.7 13.4 3.3 19.8l-0.8 2.4 1.8 1.9c6.2 6.7 5.8 20.8-0.8 27.9-4.2 4.4-6.2 4.8-22.1 4.8h-12.9zm68 0h2.1l10.9 30.2c6 16.6 11 30.4 11.2 30.8 0.2 0.7-0.1 0.7-5.2 0.6l-5.4-0.1-4-11.3h-19.1l-0.6 1.8c-0.4 1-1.3 3.6-2.1 5.8l-1.4 3.9h-5.3c-2.9 0-5.3-0.1-5.3-0.2 0-0.1 21.1-58.6 21.9-60.8 0.2-0.5 0.7-0.7 2.3-0.7zm16.1 0.3l5.7 0.2c6.1 0.1 6.8 0.3 8.6 2.8 0.9 1.2 1.3 4.5 0.7 6.2-0.4 1.2-0.3 1.4 0.6 2.4 1.9 2 2.1 6.6 0.4 9.2-1.6 2.5-3.6 3-10.2 3h-5.8zm29.1 0.2c0.8 0.1 10.3 21.8 10.3 23.5 0 0.1-1 0.1-2.3 0.1h-2.3l-1.7-3.9h-8.2l-1.7 3.9h-2.4c-1.7 0-2.3-0.1-2.2-0.5 0.2-0.4 8.4-20.5 9.3-22.7 0.1-0.3 0.6-0.5 1.2-0.4zm11.5-0.1h4.4v8.2c0 7.5 0 8.3 0.8 9.5 1.7 2.8 5.5 3 7.6 0.5l1-1.3v-16.9h4.4v8.8c0 12.5-2.8 16.8-10.3 15.6-6.4-1.1-7.8-4-7.9-15.8zm-33.6 4.3h-2.7v4.8h2.8c3.8 0 5.3-1.8 3.2-4.1-0.4-0.5-1.2-0.7-3.3-0.7zm22 5.3c0 0-0.5 1.1-1.1 2.6l-1 2.6 2 0.1c2.5 0.2 2.4 0.3 1.2-2.7-0.5-1.4-1-2.5-1.1-2.6zm-97.2 0.7l-6.1-0.1v13.1h6.2c5.6 0 6.3 0 7.5-0.8 3.9-2.4 3.8-8.9-0.2-11.2-1.2-0.7-2.2-0.8-7.4-1zm75.9 3.1h-3.4v6h3.4c4.8 0 6.9-2.4 4.3-5-0.8-0.9-1.3-1-4.3-1zm-23.9 10.4c0 0.1-1.2 3.5-2.7 7.6l-2.8 7.4h5.5c3 0 5.5-0.2 5.5-0.3 0-0.2-1.2-3.5-2.6-7.4-2.4-6.6-2.9-7.9-2.9-7.3zm-50.5 10.6h-7.6v15.8h7.8c6.4 0 8-0.1 9.1-0.6 5.2-2.5 4.9-12.4-0.6-14.7-0.9-0.3-3.3-0.5-8.7-0.5z"/>
	</g>
</svg>